<?xml version="1.0" standalone="no"?>
<!DOCTYPE svg PUBLIC "-//W3C//DTD SVG 20010904//EN"
 "http://www.w3.org/TR/2001/REC-SVG-20010904/DTD/svg10.dtd">
<svg version="1.0" xmlns="http://www.w3.org/2000/svg"
 width="1029.000000pt" height="1008.000000pt" viewBox="0 0 1029.000000 1008.000000"
 preserveAspectRatio="xMidYMid meet">

<g transform="translate(0.000000,1008.000000) scale(0.100000,-0.100000)"
fill="#000000" stroke="none">
<path d="M4734 9995 c-787 -66 -1545 -317 -2199 -727 -60 -38 -119 -74 -130
-81 -68 -42 -354 -256 -449 -337 -180 -153 -407 -377 -556 -550 -30 -35 -60
-68 -65 -74 -6 -6 -26 -31 -45 -56 -19 -25 -37 -47 -40 -50 -3 -3 -17 -21 -30
-40 -13 -19 -27 -37 -30 -40 -7 -6 -161 -220 -177 -245 -7 -11 -43 -69 -81
-130 -129 -206 -263 -466 -357 -690 -21 -49 -41 -99 -46 -110 -51 -117 -158
-458 -203 -645 -25 -107 -54 -257 -76 -395 -11 -71 -23 -143 -25 -160 -14 -79
-35 -449 -35 -610 0 -177 21 -512 40 -630 5 -33 16 -107 25 -165 9 -58 20
-118 25 -135 5 -16 12 -49 15 -72 4 -24 11 -45 16 -49 5 -3 9 -15 9 -28 0 -12
4 -26 9 -31 5 -6 12 -30 15 -55 2 -25 5 -47 6 -50 1 -3 2 -13 1 -22 -1 -9 10
-25 25 -34 23 -16 24 -19 10 -29 -11 -9 -14 -21 -10 -43 5 -26 12 -31 48 -37
l41 -7 -32 -9 c-18 -5 -33 -15 -33 -22 0 -31 14 -56 33 -61 18 -5 19 -8 7 -15
-12 -8 -12 -17 4 -68 9 -32 21 -67 26 -78 4 -11 22 -58 40 -105 17 -47 38 -98
45 -115 81 -188 109 -250 170 -370 108 -213 141 -270 263 -460 54 -83 159
-232 209 -295 6 -8 42 -53 79 -100 37 -47 85 -105 108 -130 23 -25 58 -66 79
-90 61 -71 265 -276 341 -344 39 -33 90 -79 115 -102 38 -33 119 -99 231 -187
128 -100 408 -286 545 -362 178 -98 544 -275 569 -275 3 0 25 -9 49 -19 118
-55 407 -149 619 -202 134 -34 148 -35 148 -13 0 10 -6 14 -15 11 -8 -4 -17
-2 -20 3 -6 10 10 32 68 91 37 37 41 59 11 59 -26 0 -22 5 69 87 55 51 89 55
119 18 24 -31 79 -55 125 -55 35 0 35 0 19 -23 -9 -12 -19 -30 -23 -39 -3 -10
-8 -18 -12 -18 -4 0 -15 -17 -26 -37 -11 -21 -24 -42 -28 -48 -4 -5 -16 -26
-25 -45 -9 -19 -28 -40 -42 -47 -30 -15 -21 -19 75 -33 214 -33 357 -46 607
-56 l167 -7 -9 34 c-6 19 -10 35 -10 36 0 2 -7 3 -15 3 -8 0 -15 -4 -15 -10 0
-5 -6 -10 -14 -10 -15 0 -22 41 -33 177 l-6 83 75 -6 c58 -5 81 -3 106 10 31
16 32 16 32 -5 0 -12 5 -19 13 -16 6 2 10 11 8 18 -9 34 -5 44 18 47 34 5 47
-12 29 -39 -13 -20 -12 -24 5 -43 22 -24 117 -172 117 -183 0 -5 14 -23 30
-40 27 -30 35 -33 90 -33 74 0 219 20 480 65 206 36 203 34 143 75 -20 14 -41
30 -47 35 -6 6 -39 23 -74 40 -70 32 -87 48 -87 79 0 18 -22 36 -60 49 -5 2
-2 15 8 30 9 14 17 35 17 46 0 11 5 23 10 26 14 9 98 -24 104 -41 3 -8 12 -14
19 -14 20 0 64 -25 117 -65 25 -19 59 -45 77 -57 34 -24 43 -44 43 -95 0 -18
5 -33 10 -33 6 0 10 15 10 34 0 42 15 54 30 26 6 -11 17 -20 25 -20 8 0 18 -8
23 -17 9 -15 14 -16 53 -3 24 7 48 17 54 22 5 4 17 8 27 8 20 0 223 63 273 85
17 7 86 35 154 61 68 27 122 53 121 59 -1 5 7 13 17 17 10 5 -12 6 -49 3 -61
-5 -73 -2 -156 34 -49 22 -108 45 -130 51 -48 13 -59 25 -35 39 16 9 16 12 3
21 -12 8 -9 10 13 10 15 0 45 9 67 20 60 31 67 29 170 -49 48 -36 128 -74 190
-91 36 -10 45 -7 162 51 183 92 408 222 494 286 17 13 34 23 38 23 6 0 223
156 236 170 3 3 39 30 80 62 41 31 84 65 96 75 12 10 50 43 85 73 157 136 327
305 484 481 75 84 206 246 251 310 17 24 56 78 85 119 238 329 495 839 634
1255 50 152 105 343 105 367 0 10 4 27 9 37 5 9 23 84 40 167 166 826 127
1664 -114 2455 -41 135 -126 371 -159 444 -8 17 -24 55 -37 85 -111 265 -321
633 -513 900 -219 305 -528 644 -776 853 -47 40 -94 80 -105 91 -33 30 -316
240 -401 297 -197 133 -574 339 -764 418 -30 13 -73 31 -95 41 -22 9 -89 36
-150 58 -440 163 -845 254 -1330 297 -204 18 -596 18 -811 0z m87 -55 c22 -12
26 -59 7 -78 -28 -28 -88 0 -88 41 0 21 26 46 48 47 7 0 22 -5 33 -10z m125
-1 c8 -14 -21 -43 -35 -35 -19 12 -13 46 8 46 11 0 23 -5 27 -11z m392 -92 c4
-20 -25 -34 -40 -19 -15 15 -1 44 19 40 10 -2 19 -11 21 -21z m-218 -37 c0
-23 -25 -27 -33 -6 -7 16 1 26 20 26 7 0 13 -9 13 -20z m-169 -3 c-1 -12 -15
-9 -19 4 -3 6 1 10 8 8 6 -3 11 -8 11 -12z m227 -84 c3 -19 -1 -23 -22 -23
-28 0 -41 14 -32 36 9 24 50 13 54 -13z m-418 -3 c0 -13 -7 -20 -20 -20 -13 0
-20 7 -20 20 0 13 7 20 20 20 13 0 20 -7 20 -20z m545 -35 c0 -28 -29 -25 -33
3 -3 19 0 23 15 20 10 -2 18 -12 18 -23z m-382 -10 c8 -18 -11 -31 -25 -17
-11 11 -3 32 12 32 4 0 10 -7 13 -15z m185 -28 c2 -12 -3 -17 -17 -17 -12 0
-21 6 -21 13 0 31 32 34 38 4z m-1338 3 c0 -5 -5 -10 -11 -10 -5 0 -7 5 -4 10
3 6 8 10 11 10 2 0 4 -4 4 -10z m2364 -106 c8 -21 -1 -34 -25 -34 -12 0 -19 7
-19 18 0 34 33 45 44 16z m-2811 -6 c6 -19 -3 -38 -18 -38 -15 0 -28 27 -19
41 8 13 32 11 37 -3z m1945 -15 c2 -8 -5 -13 -17 -13 -12 0 -21 6 -21 16 0 18
31 15 38 -3z m-554 -25 c3 -13 10 -59 15 -103 6 -44 18 -128 26 -186 8 -59 15
-113 15 -122 0 -19 -50 -33 -61 -16 -5 9 -14 6 -34 -10 -52 -40 -149 -20 -179
37 -37 72 -32 153 13 201 26 27 36 31 83 31 30 0 59 -5 66 -12 16 -16 16 10 1
102 -14 81 -9 100 25 100 19 0 27 -6 30 -22z m258 5 c23 -21 23 -36 -3 -59
-22 -19 -43 -13 -63 19 -8 12 -5 21 8 36 23 25 34 26 58 4z m355 -150 c37 -17
72 -76 73 -120 0 -22 -3 -23 -110 -23 -100 0 -110 -2 -110 -18 0 -53 90 -75
135 -32 21 20 28 22 50 12 32 -15 31 -22 -2 -54 -72 -69 -187 -60 -234 16 -26
43 -25 130 1 174 36 58 126 79 197 45z m-347 -198 l0 -205 -28 0 -29 0 -6 113
c-4 61 -7 154 -7 205 l0 92 35 0 35 0 0 -205z m-940 175 c0 -5 -4 -10 -10 -10
-5 0 -10 5 -10 10 0 6 5 10 10 10 6 0 10 -4 10 -10z m1682 -20 c15 -19 18 -19
18 -5 0 14 6 16 32 11 17 -3 33 -8 35 -10 3 -2 -1 -37 -6 -77 -6 -41 -19 -129
-28 -196 l-17 -123 -34 0 c-39 0 -37 -14 -16 118 l7 43 -35 -16 c-67 -32 -153
14 -165 88 -10 67 5 124 44 163 34 35 39 36 91 32 42 -4 60 -10 74 -28z m778
-4 c6 -8 10 -25 8 -38 -2 -19 -9 -23 -38 -23 -31 0 -35 3 -38 29 -5 42 41 64
68 32z m565 -26 c27 -29 10 -74 -28 -78 -36 -4 -57 13 -57 49 0 47 53 65 85
29z m-1039 -15 c3 -7 -2 -42 -10 -79 -22 -93 -21 -122 6 -140 32 -23 85 -21
98 3 5 11 18 57 28 103 18 81 20 83 47 81 15 -1 30 -5 33 -8 3 -3 -4 -48 -17
-100 -29 -119 -58 -155 -127 -155 -58 0 -118 25 -135 57 -21 39 -14 128 17
244 5 19 53 14 60 -6z m-3076 -25 c0 -5 -4 -10 -10 -10 -5 0 -10 5 -10 10 0 6
5 10 10 10 6 0 10 -4 10 -10z m996 -71 c11 -9 84 -210 84 -230 0 -6 -46 -21
-59 -20 -2 0 -18 41 -35 92 -33 98 -48 116 -89 105 -49 -12 -53 -38 -22 -143
15 -51 26 -96 23 -99 -3 -3 -18 -6 -32 -7 -26 -2 -29 3 -52 73 -35 107 -43
120 -76 120 -29 0 -68 -30 -68 -53 0 -8 11 -47 25 -87 32 -94 32 -106 -2 -113
-16 -3 -29 -5 -29 -4 -1 1 -20 60 -44 131 -35 104 -40 130 -29 137 20 13 47
11 52 -3 2 -8 14 -1 31 19 34 40 88 53 126 31 25 -14 27 -14 43 14 29 50 113
71 153 37z m358 15 c21 -8 21 -38 0 -55 -11 -9 -20 -10 -32 -2 -43 27 -15 75
32 57z m2156 -32 c0 -4 -16 -52 -36 -107 -20 -55 -39 -110 -41 -122 -6 -24
-35 -31 -61 -14 -11 7 -11 16 2 52 38 110 67 195 71 206 3 9 12 10 35 2 16 -6
30 -14 30 -17z m184 -58 c9 -3 16 -13 16 -21 0 -10 8 -12 33 -8 43 8 100 -15
122 -49 13 -20 16 -41 13 -85 -9 -120 -87 -183 -182 -147 -26 10 -48 26 -51
37 -9 26 -22 24 -29 -5 -3 -13 -15 -45 -25 -70 -20 -45 -20 -45 -51 -34 -23 7
-30 15 -25 27 89 236 141 361 151 361 7 0 19 -3 28 -6z m-3574 -124 c0 -11 -6
-20 -14 -20 -18 0 -29 16 -21 30 11 18 35 11 35 -10z m-390 -16 c0 -19 -28
-30 -42 -16 -6 6 -8 17 -5 26 7 18 47 10 47 -10z m4890 -4 c0 -5 -4 -10 -10
-10 -5 0 -10 5 -10 10 0 6 5 10 10 10 6 0 10 -4 10 -10z m-4179 -27 c44 -26
63 -70 57 -135 -8 -96 -66 -144 -164 -136 -133 11 -181 163 -81 256 47 44 128
50 188 15z m1053 -5 c3 -13 2 -26 -2 -29 -7 -7 -284 -71 -288 -66 -1 1 -4 13
-6 26 -3 24 2 26 119 52 67 15 128 29 135 32 26 10 36 7 42 -15z m2603 7 c12
-9 20 -21 17 -29 -4 -10 7 -13 40 -12 54 1 99 -28 104 -67 3 -25 6 -27 57 -27
45 0 58 -4 85 -30 42 -39 38 -61 -33 -185 l-53 -93 -27 14 c-15 8 -27 17 -27
20 0 3 20 43 45 88 49 91 55 120 26 136 -51 27 -86 2 -141 -102 -17 -32 -36
-58 -41 -58 -16 0 -49 20 -49 29 0 5 20 45 45 89 25 44 45 87 45 95 0 24 -29
47 -59 47 -34 0 -60 -27 -102 -107 -17 -35 -36 -63 -41 -63 -16 0 -48 20 -48
31 0 13 123 238 130 239 3 0 15 -7 27 -15z m-1631 -76 c3 -6 0 -18 -9 -26 -18
-18 -37 -9 -37 18 0 21 34 27 46 8z m579 -9 c3 -5 21 -10 39 -10 19 0 39 -7
46 -15 9 -10 9 -15 1 -15 -6 0 -11 5 -11 10 0 13 -57 13 -62 -1 -3 -10 -48 22
-48 35 0 10 28 7 35 -4z m215 -17 c14 -14 39 -32 55 -39 26 -12 27 -13 8 -14
-34 0 -28 -20 8 -27 25 -5 35 -15 50 -52 11 -25 35 -60 54 -76 39 -34 119
-158 105 -163 -5 -2 -60 47 -121 108 -102 101 -114 110 -128 96 -14 -15 -14
-16 2 -16 20 0 87 -60 87 -79 0 -9 -7 -11 -27 -6 -16 4 -62 10 -103 14 l-75 6
-3 33 c-2 18 2 39 8 47 7 9 8 14 0 17 -6 2 -13 20 -17 41 l-6 37 36 0 c29 0
41 -6 59 -30 26 -36 45 -40 22 -5 -16 24 -16 27 1 39 18 13 18 14 -3 20 -12 4
-22 11 -22 16 0 9 -50 23 -57 16 -3 -2 8 -11 24 -20 l28 -15 -37 -1 c-20 0
-39 4 -42 9 -11 17 13 59 36 64 13 2 25 5 28 5 3 1 16 -10 30 -25z m-1352 -34
c4 -30 -22 -46 -44 -28 -15 12 -19 41 -7 53 16 16 48 1 51 -25z m772 1 c0 -5
-5 -10 -11 -10 -5 0 -7 5 -4 10 3 6 8 10 11 10 2 0 4 -4 4 -10z m240 -30 c0
-23 -35 -28 -43 -6 -7 18 1 26 25 26 11 0 18 -7 18 -20z m157 -12 c-3 -8 -6
-5 -6 6 -1 11 2 17 5 13 3 -3 4 -12 1 -19z m-3022 -18 c67 -26 104 -119 76
-193 -24 -62 -108 -106 -174 -91 -121 26 -159 176 -65 260 12 12 30 24 38 27
25 9 97 8 125 -3z m2688 -15 c7 -17 -8 -29 -28 -21 -17 6 -9 36 10 36 7 0 15
-7 18 -15z m-1316 -1 c-3 -3 -12 -4 -19 -1 -8 3 -5 6 6 6 11 1 17 -2 13 -5z
m-47 -8 c0 -2 -9 -6 -20 -9 -11 -3 -20 -1 -20 4 0 5 9 9 20 9 11 0 20 -2 20
-4z m40 -12 c0 -3 -9 -17 -20 -31 -21 -27 -24 -23 -14 15 5 19 34 33 34 16z
m-216 -31 c-10 -7 -23 -13 -30 -13 -7 0 -15 -6 -17 -12 -3 -7 -6 -4 -6 8 -1
23 35 45 58 36 11 -4 10 -8 -5 -19z m71 -2 c-15 -13 -62 -26 -50 -13 6 5 19
12 30 15 11 3 22 5 25 6 2 0 0 -3 -5 -8z m-159 -27 c-5 -14 -1 -16 34 -10 46
7 54 -8 20 -39 -11 -10 -20 -23 -20 -29 0 -5 17 7 38 27 28 27 46 37 70 37 27
0 32 -4 32 -23 0 -13 -8 -32 -18 -43 -16 -17 -17 -22 -5 -33 8 -7 13 -25 11
-39 -3 -27 -5 -27 -106 -37 -57 -6 -106 -7 -108 -4 -5 8 75 79 88 79 4 0 8 5
8 10 0 23 -33 7 -77 -38 -54 -53 -160 -145 -176 -151 -6 -2 -7 3 -4 13 12 30
131 199 163 231 16 17 33 38 37 48 3 9 9 17 13 17 3 0 3 -7 0 -16z m1978 0 c9
-22 8 -24 -9 -18 -8 4 -15 12 -15 20 0 19 16 18 24 -2z m-2424 -4 c0 -5 -4
-10 -10 -10 -5 0 -10 5 -10 10 0 6 5 10 10 10 6 0 10 -4 10 -10z m2098 -12
c-6 -18 -28 -21 -28 -4 0 9 7 16 16 16 9 0 14 -5 12 -12z m1897 -32 c62 -26
95 -71 95 -127 0 -41 -20 -99 -35 -99 -11 0 -65 35 -134 88 -48 36 -61 32 -61
-19 0 -41 41 -72 94 -72 37 1 45 -3 55 -23 10 -22 8 -26 -17 -35 -69 -27 -164
22 -191 98 -19 54 -3 110 45 157 48 47 91 56 149 32z m491 -21 c15 -23 15 -27
0 -50 -10 -15 -26 -25 -41 -25 -15 0 -31 10 -41 25 -15 23 -15 27 0 50 10 15
26 25 41 25 15 0 31 -10 41 -25z m-5426 -20 c0 -27 -4 -35 -18 -35 -9 0 -23
-9 -29 -20 -17 -25 -5 -55 53 -138 l46 -66 -24 -18 c-12 -9 -26 -18 -29 -18
-4 0 -19 19 -35 43 -16 23 -50 72 -76 108 -27 37 -48 69 -48 73 0 3 12 13 26
22 22 15 27 15 35 3 7 -11 9 -9 9 8 0 23 52 73 76 73 9 0 14 -11 14 -35z
m3397 -31 c-12 -13 -27 9 -26 39 l0 32 16 -32 c9 -18 14 -36 10 -39z m167 29
c3 -4 28 -9 53 -11 53 -4 89 -20 117 -51 28 -31 17 -33 -45 -11 -31 12 -81 20
-119 21 l-65 1 35 13 35 13 -30 2 c-16 0 -41 7 -55 15 -24 14 -24 14 21 15 25
0 49 -3 53 -7z m-534 -28 c0 -8 -7 -15 -15 -15 -16 0 -20 12 -8 23 11 12 23 8
23 -8z m-1400 -41 c-6 -14 -10 -36 -10 -48 0 -13 -7 -29 -15 -36 -12 -10 -15
-10 -15 3 0 9 5 19 10 22 6 4 8 15 5 26 -4 10 -2 19 3 19 5 0 12 9 15 20 3 11
8 20 11 20 3 0 1 -12 -4 -26z m1795 9 c11 -14 27 -17 93 -14 62 2 102 -3 181
-25 55 -15 101 -31 101 -37 0 -10 -5 -9 -125 17 -38 8 -99 15 -135 16 -88 0
-140 15 -140 40 0 25 9 25 25 3z m911 -28 c4 -9 19 -15 40 -15 21 0 42 -8 57
-22 13 -13 39 -31 57 -41 30 -16 32 -20 17 -28 -9 -6 -17 -18 -17 -29 0 -26
-27 -50 -56 -50 -14 0 -24 -6 -24 -14 0 -23 -25 -36 -74 -38 -25 -1 -46 -6
-46 -10 0 -16 -25 -7 -51 18 -24 23 -26 29 -14 40 20 20 30 18 70 -17 19 -17
35 -26 35 -21 0 9 -12 20 -65 59 -6 5 -26 17 -45 27 -19 10 -42 28 -51 39 -15
18 -28 21 -113 21 -138 0 -128 15 37 57 71 18 161 34 220 38 10 0 20 -6 23
-14z m-1376 -15 c0 -5 -7 -10 -15 -10 -8 0 -15 5 -15 10 0 6 7 10 15 10 8 0
15 -4 15 -10z m-1458 -39 l-4 -28 -101 -6 c-56 -3 -117 -11 -135 -17 -51 -19
-49 -4 4 30 42 26 57 31 104 29 30 -1 66 3 80 9 44 19 57 15 52 -17z m-955 -7
c13 -4 20 -10 17 -15 -3 -5 4 -9 15 -9 12 0 21 -4 21 -10 0 -5 -10 -10 -23
-10 -13 0 -45 -11 -73 -24 -43 -21 -49 -22 -53 -8 -2 9 -10 21 -18 27 -13 10
-13 13 0 24 29 23 79 34 114 25z m113 -14 c0 -12 -8 -12 -35 0 -18 8 -17 9 8
9 15 1 27 -3 27 -9z m3133 -19 c6 -6 -3 -23 -27 -48 -38 -41 -44 -53 -23 -53
8 0 20 11 27 25 25 46 28 26 9 -52 -40 -157 -102 -289 -116 -246 -2 6 -13 9
-23 6 -28 -7 -26 15 10 98 16 38 32 86 36 106 4 21 11 43 16 50 6 8 -5 11 -40
11 -37 1 -58 -5 -83 -24 -36 -26 -53 -20 -47 17 2 19 14 28 58 42 35 12 67 31
88 54 29 31 37 35 69 30 20 -4 41 -11 46 -16z m1433 -2 c14 -16 15 -22 5 -28
-9 -6 0 -11 25 -16 75 -14 126 -75 108 -129 -5 -13 -40 -61 -78 -105 -65 -76
-71 -80 -90 -67 -30 19 -26 38 14 83 89 96 99 127 54 162 -42 33 -61 26 -133
-49 -37 -38 -70 -70 -74 -70 -4 0 -15 7 -26 16 -19 16 -18 19 31 78 136 163
132 160 164 125z m-5716 -68 l64 -79 13 37 c22 65 92 106 147 85 8 -3 48 -44
87 -91 l71 -84 -20 -20 c-12 -10 -25 -19 -30 -19 -5 0 -32 29 -62 65 -74 92
-95 101 -135 60 -39 -38 -32 -68 35 -150 l60 -74 -22 -15 c-32 -23 -39 -20
-79 32 -21 26 -82 100 -138 165 -56 65 -101 121 -101 124 0 9 32 43 39 43 3 0
35 -35 71 -79z m1301 60 c91 -23 189 -57 203 -71 11 -11 -1 -13 -114 -11 -53
1 -81 -3 -94 -14 -23 -17 -21 -21 18 -31 19 -4 27 -3 23 3 -4 6 12 13 41 16
56 6 65 2 26 -14 -16 -6 -51 -22 -78 -36 -37 -20 -50 -23 -56 -13 -5 8 -15 10
-26 6 -15 -6 -16 -9 -5 -16 12 -7 12 -11 -2 -24 -8 -9 -20 -16 -26 -16 -6 0
-11 -4 -11 -10 0 -15 -37 -12 -43 3 -5 13 83 87 104 87 5 0 9 5 9 10 0 15 -26
12 -40 -5 -7 -8 -18 -15 -25 -15 -6 0 -28 -16 -47 -36 -43 -42 -91 -46 -96 -6
-2 15 -15 27 -38 37 -46 19 -54 42 -23 67 13 10 36 21 50 24 16 4 26 12 25 22
0 9 13 22 29 30 17 9 37 19 45 23 25 13 74 10 151 -10z m3268 -52 c56 -27 106
-49 110 -49 4 0 14 -8 22 -17 9 -10 26 -26 38 -35 23 -19 28 -48 9 -48 -7 0
-50 27 -96 60 -75 53 -147 94 -217 120 -34 13 -33 32 3 24 15 -3 74 -28 131
-55z m75 31 c39 -37 -22 -52 -64 -16 -8 8 -27 16 -42 20 -50 12 -29 25 30 19
35 -3 64 -12 76 -23z m-2644 10 c28 -19 -11 -30 -105 -30 -49 0 -119 -7 -155
-14 -65 -14 -97 -11 -67 6 34 19 127 33 292 46 11 1 27 -3 35 -8z m2110 -5
c-14 -8 -36 -14 -50 -14 l-25 0 25 14 c14 8 36 14 50 14 l25 0 -25 -14z m990
-6 c0 -5 -4 -9 -10 -9 -5 0 -10 7 -10 16 0 8 5 12 10 9 6 -3 10 -10 10 -16z
m-4200 1 c-20 -13 -33 -13 -25 0 3 6 14 10 23 10 15 0 15 -2 2 -10z m5574 -6
c9 -8 16 -24 16 -34 0 -40 -60 -66 -88 -38 -28 28 -2 88 38 88 10 0 26 -7 34
-16z m-2570 -43 c-9 -10 -26 18 -18 30 5 9 9 8 14 -7 4 -10 6 -21 4 -23z
m-3124 14 c0 -8 -6 -15 -14 -15 -17 0 -28 14 -19 24 12 12 33 6 33 -9z m53 8
c-7 -2 -19 -2 -25 0 -7 3 -2 5 12 5 14 0 19 -2 13 -5z m173 -8 c-23 -17 -36
-19 -36 -6 0 5 8 12 18 14 32 9 37 6 18 -8z m3450 -20 c23 -19 46 -44 49 -55
5 -15 12 -18 33 -14 21 4 34 -2 60 -26 17 -18 32 -39 32 -46 0 -8 4 -14 9 -14
5 0 7 -9 4 -20 -3 -11 -12 -20 -19 -20 -8 0 -14 -10 -14 -22 -1 -27 -21 -56
-36 -51 -6 2 -19 -6 -29 -17 -10 -11 -31 -20 -46 -20 -15 0 -31 -4 -34 -10 -3
-5 -12 -10 -19 -10 -10 0 -12 14 -8 53 2 28 8 56 13 62 14 14 11 41 -7 55 -20
17 -44 75 -45 109 l0 26 -10 -25 c-6 -14 -8 -38 -5 -53 4 -20 -3 -46 -24 -88
-17 -32 -40 -84 -51 -114 -23 -62 -38 -69 -57 -25 -17 37 -10 71 33 158 18 37
43 93 56 125 18 46 27 57 41 54 11 -3 18 0 18 9 0 21 9 18 56 -21z m239 25 c3
-5 2 -10 -4 -10 -5 0 -13 5 -16 10 -3 6 -2 10 4 10 5 0 13 -4 16 -10z m425 -5
c0 -8 -4 -15 -10 -15 -5 0 -10 7 -10 15 0 8 5 15 10 15 6 0 10 -7 10 -15z
m-4315 -35 c3 -5 -1 -10 -9 -10 -8 0 -18 5 -21 10 -3 6 1 10 9 10 8 0 18 -4
21 -10z m2502 -6 c8 -21 -13 -42 -28 -27 -13 13 -5 43 11 43 6 0 13 -7 17 -16z
m1723 -14 c-14 -11 -32 -20 -40 -20 -10 0 -7 7 10 20 14 11 32 20 40 20 10 0
7 -7 -10 -20z m-3482 -1 c-2 -5 -33 -20 -68 -33 -68 -24 -172 -80 -227 -122
-37 -28 -68 -32 -59 -8 3 9 6 20 6 25 0 5 5 9 11 9 6 0 25 11 42 24 34 26 131
71 172 82 14 3 23 10 20 14 -5 8 24 14 83 18 13 1 22 -3 20 -9z m237 -8 c7
-23 34 -41 98 -65 41 -16 47 -21 47 -47 0 -36 -18 -37 -54 -4 -28 25 -56 33
-56 15 0 -5 8 -10 18 -10 31 0 64 -44 64 -85 0 -45 -15 -64 -34 -44 -28 29
-78 113 -78 131 0 10 -6 18 -13 18 -19 0 -8 -61 27 -164 27 -80 28 -113 2
-103 -8 3 -16 1 -18 -4 -2 -6 -11 -7 -20 -4 -18 7 -60 127 -83 236 -19 90 -19
99 4 72 20 -23 41 -30 41 -14 0 5 -3 11 -7 13 -19 8 -54 58 -48 67 3 6 28 11
55 11 39 0 50 -4 55 -19z m163 -33 c4 -22 -13 -31 -35 -19 -10 6 -35 17 -55
27 -54 23 -39 33 29 20 39 -8 59 -17 61 -28z m2212 33 c0 -14 -64 -103 -83
-115 -39 -24 -50 49 -14 94 17 22 31 29 60 29 20 1 37 -3 37 -8z m-1110 -27
c0 -8 -10 -14 -25 -14 -26 0 -35 25 -12 33 18 6 37 -3 37 -19z m-2185 6 c7
-12 -2 -12 -30 0 -19 8 -19 9 2 9 12 1 25 -3 28 -9z m2348 -12 c7 -21 -4 -38
-23 -38 -10 0 -20 6 -23 13 -7 20 4 37 23 37 10 0 20 -6 23 -12z m1757 2 c0
-5 -5 -10 -11 -10 -5 0 -7 5 -4 10 3 6 8 10 11 10 2 0 4 -4 4 -10z m-4066 -6
c20 -8 21 -24 2 -24 -8 0 -16 7 -20 15 -6 17 -4 18 18 9z m665 -17 c15 4 24
-9 46 -69 15 -40 38 -97 51 -127 31 -69 42 -133 23 -129 -8 2 -15 -4 -15 -12
-1 -8 -2 -21 -3 -29 -2 -28 -30 10 -47 67 -10 31 -30 83 -46 114 -32 66 -34
72 -12 64 8 -3 12 -2 9 4 -3 5 -10 29 -14 52 -7 33 -9 36 -10 15 -1 -37 -34
-108 -60 -129 -24 -21 -28 -40 -6 -32 12 5 15 -5 15 -60 0 -83 -22 -90 -41
-12 l-7 31 -1 -32 c-1 -35 -15 -41 -43 -19 -26 19 -22 53 12 121 18 36 30 76
30 99 0 30 6 44 28 63 36 32 66 44 70 28 2 -7 11 -11 21 -8z m4781 -2 c0 -8
-4 -15 -10 -15 -5 0 -10 7 -10 15 0 8 5 15 10 15 6 0 10 -7 10 -15z m-1444
-33 c-12 -12 -123 -15 -130 -3 -5 8 4 10 31 5 25 -4 48 0 68 10 19 10 31 12
34 5 1 -6 0 -13 -3 -17z m-229 -4 c-3 -8 -6 -5 -6 6 -1 11 2 17 5 13 3 -3 4
-12 1 -19z m1439 -9 c19 -21 18 -21 -19 -56 -38 -34 -38 -35 -20 -55 17 -19
17 -20 -2 -34 -22 -16 -45 -18 -45 -4 0 24 -30 5 -95 -60 -38 -38 -74 -70 -79
-70 -5 0 -17 9 -27 21 -18 21 -17 22 59 94 72 69 76 75 64 95 -12 19 -11 25 2
39 14 13 19 14 38 2 19 -12 24 -10 52 18 36 37 47 38 72 10z m-5526 1 c0 -5
-7 -10 -15 -10 -8 0 -15 5 -15 10 0 6 7 10 15 10 8 0 15 -4 15 -10z m390 0 c0
-5 7 -10 16 -10 8 0 13 -4 9 -10 -3 -5 -12 -7 -20 -4 -16 7 -28 34 -15 34 6 0
10 -4 10 -10z m440 -18 c0 -5 -9 -17 -20 -27 -11 -10 -32 -42 -47 -72 -15 -29
-32 -53 -39 -53 -20 0 -36 29 -30 54 11 46 136 136 136 98z m1728 -15 c4 -21
-27 -35 -38 -17 -12 19 0 42 19 38 9 -2 17 -11 19 -21z m835 3 c3 -13 0 -20
-9 -20 -8 0 -14 9 -14 20 0 11 4 20 9 20 5 0 11 -9 14 -20z m444 -62 c-7 -85
-25 -124 -48 -101 -8 8 -6 31 6 84 23 99 23 99 36 99 9 0 10 -22 6 -82z
m-2401 14 c-12 -12 -18 8 -10 35 l8 28 4 -28 c2 -16 1 -31 -2 -35z m-941 -10
c-7 -8 -35 13 -35 26 0 13 3 12 19 -4 10 -10 17 -20 16 -22z m342 11 c-12 -29
-31 -53 -41 -53 -11 0 -6 14 14 48 24 40 45 43 27 5z m2018 18 c7 -12 -12 -24
-25 -16 -11 7 -4 25 10 25 5 0 11 -4 15 -9z m-3535 -41 c0 -22 -5 -30 -18 -30
-26 0 -54 -33 -46 -54 8 -21 15 -20 73 5 62 26 108 22 134 -13 26 -35 16 -88
-23 -128 -51 -52 -120 -68 -120 -27 0 31 14 49 31 42 20 -8 69 31 69 55 0 28
-28 32 -77 10 -65 -29 -107 -26 -133 7 -34 44 -8 120 51 150 41 22 59 17 59
-17z m770 4 c0 -8 -7 -14 -15 -14 -15 0 -21 21 -9 33 10 9 24 -2 24 -19z m495
16 c-3 -5 -15 -10 -26 -10 -11 0 -17 5 -14 10 3 6 15 10 26 10 11 0 17 -4 14
-10z m115 1 c0 -5 -7 -11 -15 -15 -9 -3 -15 0 -15 9 0 8 7 15 15 15 8 0 15 -4
15 -9z m1828 -29 c3 -17 -2 -22 -17 -22 -14 0 -21 6 -21 18 0 38 33 41 38 4z
m-90 -9 c-5 -26 -38 -29 -38 -4 0 15 6 21 21 21 14 0 19 -5 17 -17z m-1474
-97 c9 -49 14 -91 11 -94 -3 -4 -14 -2 -23 4 -19 12 -40 148 -28 180 11 29 22
4 40 -90z m3181 94 c-3 -5 -11 -10 -17 -10 -6 0 -20 -8 -31 -17 -21 -18 -16
-3 8 24 12 15 49 17 40 3z m-685 -36 c0 -8 -4 -14 -10 -14 -5 0 -10 9 -10 21
0 11 5 17 10 14 6 -3 10 -13 10 -21z m-2680 -14 c0 -21 -4 -28 -14 -24 -11 4
-11 10 -2 30 14 31 16 30 16 -6z m615 1 c-3 -6 -14 -11 -23 -11 -15 1 -15 2 2
15 21 16 32 13 21 -4z m1120 -6 c0 -13 -8 -21 -22 -23 -17 -3 -23 2 -23 16 0
10 3 22 7 26 13 13 38 1 38 -19z m71 4 c10 -17 -13 -36 -27 -22 -12 12 -4 33
11 33 5 0 12 -5 16 -11z m-4116 -34 c0 -8 -7 -15 -15 -15 -8 0 -15 7 -15 15 0
8 7 15 15 15 8 0 15 -7 15 -15z m2857 -7 c-3 -8 -6 -5 -6 6 -1 11 2 17 5 13 3
-3 4 -12 1 -19z m2253 12 c0 -12 -24 -30 -41 -30 -9 0 -19 8 -21 18 -4 13 2
17 29 18 18 0 33 -2 33 -6z m450 0 c0 -5 -5 -10 -11 -10 -5 0 -7 5 -4 10 3 6
8 10 11 10 2 0 4 -4 4 -10z m-3399 -13 c-1 -12 -15 -9 -19 4 -3 6 1 10 8 8 6
-3 11 -8 11 -12z m3004 -14 c2 -10 4 -23 4 -29 1 -5 13 -15 29 -21 l27 -12
-35 2 c-34 2 -35 3 -38 47 -3 43 6 52 13 13z m-4877 -26 c3 -26 1 -28 -25 -25
-31 3 -44 35 -21 49 23 15 43 5 46 -24z m1957 -7 c4 -6 -2 -7 -16 -1 -13 4
-25 14 -27 20 -3 10 0 10 16 2 12 -6 24 -16 27 -21z m605 0 c0 -22 -5 -30 -17
-30 -13 0 -14 3 -5 12 7 7 12 20 12 30 0 10 2 18 5 18 3 0 5 -13 5 -30z m2630
20 c0 -14 -24 -23 -47 -17 -15 3 -14 6 7 15 32 14 40 14 40 2z m-1546 -16 c9
-3 16 -12 16 -18 0 -18 -21 -35 -36 -29 -15 5 -19 35 -7 46 8 8 8 8 27 1z
m386 -9 c0 -8 -7 -15 -15 -15 -8 0 -15 7 -15 15 0 8 7 15 15 15 8 0 15 -7 15
-15z m3139 1 c15 -18 3 -46 -20 -46 -22 0 -34 22 -25 45 7 19 30 19 45 1z
m-3379 -21 c0 -8 -9 -15 -20 -15 -11 0 -20 7 -20 15 0 8 9 15 20 15 11 0 20
-7 20 -15z m1283 -2 c-7 -2 -19 -2 -25 0 -7 3 -2 5 12 5 14 0 19 -2 13 -5z
m-3083 -14 c0 -5 5 -7 10 -4 6 3 10 1 10 -5 0 -15 -32 -9 -38 8 -2 6 1 12 7
12 6 0 11 -5 11 -11z m2985 1 c-3 -5 -10 -10 -16 -10 -5 0 -9 5 -9 10 0 6 7
10 16 10 8 0 12 -4 9 -10z m-2492 -17 c-7 -3 -13 -11 -13 -19 0 -8 -4 -14 -10
-14 -5 0 -10 4 -10 9 0 14 32 43 39 35 3 -4 0 -9 -6 -11z m-2116 -34 c85 -66
113 -103 113 -149 0 -76 -86 -161 -148 -145 -32 8 -101 51 -157 99 -40 34 -40
34 -21 55 11 12 22 21 26 21 4 0 38 -25 76 -55 38 -30 79 -55 92 -55 29 0 72
42 72 71 0 21 -13 35 -119 126 -30 26 -32 32 -22 51 16 30 26 28 88 -19z
m-623 4 c8 -21 -17 -48 -38 -40 -9 4 -16 18 -16 32 0 20 5 25 24 25 13 0 27
-8 30 -17z m2336 -13 c0 -14 -14 -12 -28 2 -19 19 -14 30 8 18 11 -6 20 -15
20 -20z m286 -25 c-3 -8 -11 -15 -18 -14 -10 0 -10 2 0 6 6 2 12 14 13 26 0
12 3 16 6 9 3 -7 2 -19 -1 -27z m-183 -2 c-7 -2 -19 -2 -25 0 -7 3 -2 5 12 5
14 0 19 -2 13 -5z m1217 -18 c0 -8 -7 -15 -15 -15 -8 0 -15 7 -15 15 0 8 7 15
15 15 8 0 15 -7 15 -15z m620 -5 c0 -21 -15 -27 -25 -10 -7 12 2 30 16 30 5 0
9 -9 9 -20z m-280 1 c0 -6 -4 -13 -10 -16 -5 -3 -10 1 -10 9 0 9 5 16 10 16 6
0 10 -4 10 -9z m100 -6 c20 -25 8 -50 -25 -50 -31 0 -43 20 -31 51 7 18 40 18
56 -1z m-4185 -15 c0 -8 -8 -16 -17 -18 -13 -2 -18 3 -18 18 0 15 5 20 18 18
9 -2 17 -10 17 -18z m6882 -14 c4 -8 24 -32 43 -53 19 -21 57 -64 84 -96 49
-58 49 -59 29 -78 -20 -20 -20 -20 -117 96 -82 96 -96 118 -86 130 16 19 37
19 47 1z m-2970 -62 c8 -21 -13 -42 -28 -27 -13 13 -5 43 11 43 6 0 13 -7 17
-16z m-1267 -29 c0 -8 -7 -15 -15 -15 -8 0 -15 7 -15 15 0 8 7 15 15 15 8 0
15 -7 15 -15z m4793 -44 c-8 -13 -4 -18 21 -26 42 -14 79 -71 73 -112 -5 -27
-2 -33 21 -42 53 -20 82 -58 82 -109 0 -35 -10 -44 -120 -116 -79 -51 -86 -54
-102 -39 -29 26 -22 40 45 84 116 78 129 100 80 138 -32 26 -48 22 -135 -35
-37 -24 -72 -44 -78 -44 -10 0 -30 32 -30 48 0 5 30 29 67 53 106 69 120 92
83 129 -31 31 -66 24 -142 -26 -72 -47 -89 -49 -108 -15 -9 17 -6 23 17 38 16
9 68 43 117 75 89 57 89 58 104 36 11 -15 12 -25 5 -37z m-7283 34 c0 -8 -4
-15 -10 -15 -5 0 -10 7 -10 15 0 8 5 15 10 15 6 0 10 -7 10 -15z m3925 -15 c0
-30 -33 -40 -51 -15 -19 25 -6 47 25 43 20 -2 26 -8 26 -28z m602 -13 c14 -30
-1 -57 -31 -57 -36 0 -52 25 -36 55 17 32 53 33 67 2z m-4457 3 c0 -5 -7 -10
-15 -10 -8 0 -15 5 -15 10 0 6 7 10 15 10 8 0 15 -4 15 -10z m2237 -6 c8 -22
-10 -49 -32 -49 -10 0 -22 7 -28 16 -15 24 -1 49 28 49 15 0 28 -7 32 -16z
m407 7 c10 -16 -5 -41 -24 -41 -19 0 -34 25 -24 41 3 5 14 9 24 9 10 0 21 -4
24 -9z m-1184 -30 c11 -22 10 -26 -60 -176 -26 -55 -55 -106 -64 -114 -9 -7
-16 -17 -16 -22 0 -5 -26 -44 -57 -87 -32 -44 -76 -104 -98 -135 -22 -32 -47
-57 -55 -57 -15 -1 -52 -72 -65 -125 -7 -30 -64 -114 -77 -115 -17 0 -6 27 27
69 38 48 43 61 21 61 -8 0 -18 -10 -22 -22 -4 -13 -10 -25 -13 -28 -4 -3 -15
-16 -24 -30 l-17 -25 6 35 c4 19 13 53 20 75 8 22 14 52 14 66 0 14 3 29 7 33
4 4 8 28 9 54 3 89 25 154 80 237 56 84 174 218 210 238 12 7 46 29 75 50 60
42 84 46 99 18z m2700 9 c0 -5 -4 -10 -10 -10 -5 0 -10 5 -10 10 0 6 5 10 10
10 6 0 10 -4 10 -10z m-3378 -27 c10 -9 18 -26 18 -37 0 -12 8 -34 17 -51 13
-25 17 -69 20 -258 2 -173 0 -227 -8 -221 -9 5 -10 -3 -5 -32 11 -63 19 -194
12 -194 -36 0 -158 104 -198 170 -35 58 -47 216 -26 374 12 95 33 152 83 223
32 45 57 53 87 26z m3000 -28 c14 -16 28 -23 39 -20 13 4 24 -8 45 -51 15 -30
33 -61 39 -68 15 -15 59 -149 80 -245 19 -89 39 -138 67 -168 12 -13 19 -25
17 -27 -8 -8 -289 -9 -297 -2 -17 18 -13 164 7 269 27 139 26 160 -4 70 -29
-91 -49 -239 -41 -307 l7 -51 -87 -18 c-48 -10 -114 -27 -146 -39 -33 -11 -62
-18 -64 -15 -3 3 4 24 16 48 12 23 33 70 45 103 13 34 29 75 36 91 7 17 20 53
30 80 39 112 -27 -12 -100 -185 -47 -113 -91 -166 -164 -201 -67 -31 -96 -38
-79 -16 5 6 45 82 88 167 42 85 97 187 121 225 l44 70 -48 -51 c-26 -28 -66
-84 -87 -125 -128 -244 -155 -290 -195 -326 -28 -27 -221 -126 -229 -119 -2 3
11 24 30 48 47 59 72 101 148 243 89 167 116 212 147 250 19 22 37 45 42 50
50 65 326 275 360 275 6 0 11 -9 11 -20 0 -11 7 -20 15 -20 17 0 20 16 5 25
-16 10 -11 44 10 65 27 27 66 25 92 -5z m-270 0 c0 -5 -5 -11 -11 -13 -6 -2
-11 4 -11 13 0 9 5 15 11 13 6 -2 11 -8 11 -13z m-977 -5 c3 -5 1 -10 -4 -10
-6 0 -11 5 -11 10 0 6 2 10 4 10 3 0 8 -4 11 -10z m1592 -65 c54 -36 73 -42
73 -25 0 16 37 12 54 -6 12 -11 13 -20 6 -34 -9 -16 -3 -26 34 -61 52 -47 131
-166 174 -261 37 -79 73 -123 123 -148 38 -20 55 -37 46 -47 -3 -2 -49 5 -101
17 -158 37 -225 95 -339 296 -75 133 -94 160 -103 151 -12 -12 150 -300 200
-354 27 -30 47 -55 45 -57 -2 -2 -26 0 -54 4 -27 5 -75 9 -105 9 -51 1 -59 4
-93 39 -40 41 -60 90 -83 201 -21 102 -50 174 -101 254 -23 37 -43 69 -43 72
0 3 29 4 65 2 36 -2 68 0 71 5 7 11 68 -16 131 -57z m-3837 -22 c73 -43 85
-53 82 -74 -4 -34 -14 -40 -42 -25 -154 84 -162 87 -184 73 -12 -9 -22 -27
-24 -46 -4 -39 12 -55 105 -106 66 -38 72 -47 47 -80 -13 -17 -17 -18 -37 -6
-62 40 -147 81 -166 81 -23 0 -41 -27 -41 -64 0 -27 29 -52 115 -101 28 -15
51 -29 53 -30 5 -4 -21 -55 -28 -55 -4 0 -55 27 -114 60 -59 33 -112 60 -117
60 -12 0 -11 4 3 35 8 17 18 25 28 22 14 -4 17 3 16 37 -1 51 25 94 66 108 25
9 29 14 23 35 -8 35 12 89 43 114 37 29 69 21 172 -38z m3314 48 c3 -5 -13
-16 -36 -26 -23 -9 -54 -25 -69 -36 -15 -10 -34 -19 -43 -19 -9 0 -15 -4 -13
-9 1 -5 -42 -52 -96 -105 -104 -102 -165 -188 -287 -401 -62 -108 -121 -196
-198 -293 -16 -21 -272 -164 -317 -178 -15 -5 -11 3 16 32 58 63 161 195 198
254 155 249 260 390 365 495 136 134 210 195 239 195 10 0 17 11 19 33 3 31 4
32 53 33 28 1 73 8 100 16 64 20 63 20 69 9z m2346 -8 c14 -9 27 -20 30 -23 3
-3 27 -21 53 -40 43 -30 104 -97 173 -187 74 -98 123 -243 125 -372 0 -31 4
-81 8 -111 5 -30 8 -56 6 -58 -1 -1 -17 20 -36 48 -32 47 -49 61 -49 41 0 -4
11 -23 24 -42 35 -48 60 -99 52 -106 -14 -14 -84 106 -90 155 -6 48 -49 122
-71 122 -9 0 -44 42 -45 53 0 4 -30 50 -66 103 -36 52 -81 129 -100 172 -20
42 -42 91 -51 107 -24 48 -42 114 -36 135 7 25 40 26 73 3z m-3815 -13 c3 -6
-1 -13 -10 -16 -19 -8 -30 0 -20 15 8 14 22 14 30 1z m4507 -62 c14 -18 28
-44 32 -58 4 -14 13 -38 21 -55 11 -25 27 -162 28 -230 0 -58 -27 -205 -44
-242 -35 -72 -154 -172 -206 -173 -16 0 -18 111 -2 127 7 7 11 98 13 254 3
218 6 251 25 314 25 79 61 121 90 106 10 -6 29 -25 43 -43z m-3292 12 c0 -6
-8 -13 -17 -17 -10 -3 -45 -25 -78 -48 -125 -88 -292 -289 -495 -595 -81 -122
-165 -225 -262 -322 -75 -75 -104 -94 -198 -124 -25 -8 -55 -20 -67 -26 -40
-20 -35 -2 13 47 44 47 62 69 186 240 32 44 62 85 66 90 5 6 40 53 77 105 155
215 344 403 515 515 25 16 63 44 85 61 34 27 145 82 168 84 4 0 7 -5 7 -10z
m-150 -10 c0 -5 -7 -10 -16 -10 -8 0 -12 5 -9 10 3 6 10 10 16 10 5 0 9 -4 9
-10z m-397 -32 c7 -21 -4 -38 -23 -38 -10 0 -20 6 -23 13 -7 20 4 37 23 37 10
0 20 -6 23 -12z m4847 -44 c0 -8 -5 -12 -10 -9 -6 4 -8 11 -5 16 9 14 15 11
15 -7z m-4652 -81 c-34 -25 -124 -108 -198 -183 -128 -129 -168 -179 -474
-590 -96 -128 -176 -207 -223 -219 -21 -5 -67 -13 -102 -16 l-63 -7 93 94 c52
51 166 183 254 293 88 110 192 231 230 269 113 110 291 251 465 368 79 53 93
46 18 -9z m-593 17 c16 -17 17 -23 5 -45 -17 -32 -38 -39 -66 -20 -42 28 -24
84 27 85 9 0 24 -9 34 -20z m-2730 -39 c3 -5 30 -21 60 -35 30 -14 55 -30 55
-35 0 -17 -17 -13 -61 14 -22 14 -51 30 -64 35 -14 5 -25 14 -25 20 0 13 27
13 35 1z m2605 -72 c0 -5 -4 -9 -10 -9 -5 0 -10 7 -10 16 0 8 5 12 10 9 6 -3
10 -10 10 -16z m390 -80 c-86 -78 -187 -160 -280 -225 -117 -83 -115 -81 -99
-53 6 13 17 28 23 34 22 22 182 148 216 171 19 12 67 45 105 73 90 64 105 64
35 0z m4879 6 c24 -27 31 -45 31 -75 0 -22 2 -40 4 -40 6 0 112 57 144 77 21
13 25 13 38 -4 7 -10 13 -25 13 -33 1 -9 -71 -53 -186 -115 -102 -55 -191
-101 -198 -103 -6 -1 -17 9 -24 24 -10 22 -9 29 1 35 9 6 9 9 1 9 -23 0 -72
51 -78 81 -22 98 54 178 171 179 47 0 55 -3 83 -35z m-7597 -151 c214 -80 229
-112 149 -323 -28 -74 -60 -145 -72 -157 -26 -28 -89 -44 -132 -34 -71 17
-250 90 -273 111 -29 27 -48 81 -41 117 2 15 19 65 36 112 18 47 37 99 42 116
10 34 52 82 84 95 40 16 86 8 207 -37z m4226 -19 c12 -3 22 -11 22 -16 0 -5 0
-12 0 -16 0 -11 -173 -3 -187 9 -24 20 -13 27 50 30 66 4 79 3 115 -7z m-4780
-23 c3 -17 -2 -22 -17 -22 -14 0 -21 6 -21 18 0 38 33 41 38 4z m4560 7 c3
-14 -11 -18 -90 -24 -51 -4 -109 -11 -130 -17 -37 -11 -108 -4 -108 11 0 4 35
15 78 24 139 31 245 33 250 6z m475 -11 c49 -10 57 -15 57 -34 0 -33 -11 -35
-74 -19 -31 8 -66 15 -76 15 -31 0 -98 30 -104 47 -6 14 3 15 66 9 40 -3 99
-12 131 -18z m-4018 -23 c30 -13 66 -27 80 -31 26 -6 41 -21 32 -31 -3 -3 -18
2 -34 10 -15 8 -54 26 -85 39 -32 12 -58 26 -58 31 0 11 7 9 65 -18z m6423 13
c-7 -19 -38 -22 -38 -4 0 10 9 16 21 16 12 0 19 -5 17 -12z m-5954 -63 c5 -36
4 -46 -3 -35 -10 13 -16 99 -7 89 2 -2 6 -26 10 -54z m3696 46 c19 -5 62 -14
95 -22 63 -13 145 -44 145 -54 0 -15 -22 -45 -38 -54 -18 -10 -39 -3 -196 56
-38 14 -51 25 -57 45 -10 40 -5 43 51 29z m-986 -14 c17 -12 13 -16 -40 -37
-33 -13 -64 -27 -71 -32 -16 -12 -86 -6 -90 8 -4 12 0 14 92 50 71 27 85 28
109 11z m3254 -35 c2 -7 -3 -12 -12 -12 -9 0 -16 7 -16 16 0 17 22 14 28 -4z
m-6523 -42 c10 -16 -5 -50 -21 -50 -17 0 -28 24 -20 45 6 17 32 20 41 5z
m4614 -15 c35 -13 79 -34 98 -45 19 -11 43 -20 53 -20 33 0 32 -19 -2 -49 -41
-38 -60 -38 -134 -2 -32 15 -76 34 -96 42 -21 7 -38 16 -38 19 0 6 49 80 53
80 2 0 32 -11 66 -25z m-1571 -5 c1 -10 -22 -26 -69 -48 -55 -25 -78 -31 -105
-26 -37 7 -45 23 -15 31 10 2 45 18 77 34 62 30 107 34 112 9z m-3793 0 c3 -5
-1 -10 -10 -10 -9 0 -13 5 -10 10 3 6 8 10 10 10 2 0 7 -4 10 -10z m5782 -27
c1 -19 -1 -22 -8 -12 -11 17 -12 39 -1 39 4 0 8 -12 9 -27z m2352 -8 c35 -30
55 -82 45 -120 -5 -19 -3 -26 4 -21 12 7 32 -23 32 -47 0 -8 -8 -17 -17 -20
-27 -8 -283 -115 -317 -133 -28 -13 -32 -13 -43 3 -27 36 -16 50 58 79 72 27
72 27 46 41 -33 17 -57 61 -57 104 0 104 169 181 249 114z m-8311 -13 c3 -16
-2 -22 -17 -22 -24 0 -35 15 -27 36 9 23 40 13 44 -14z m7477 -2 c-22 -10 -47
-18 -55 -18 -8 0 3 8 25 19 22 10 47 18 55 18 8 0 -3 -9 -25 -19z m-7326 -44
c-12 -48 -22 -57 -33 -30 -13 34 -6 65 17 73 12 5 23 7 25 6 2 -1 -2 -23 -9
-49z m3593 -6 c23 0 23 -16 1 -24 -10 -3 -36 -17 -58 -31 -40 -25 -77 -29
-125 -16 -22 6 -16 12 60 49 54 26 88 38 94 32 6 -6 18 -10 28 -10z m-3822 -5
c0 -8 -4 -15 -9 -15 -13 0 -22 16 -14 24 11 11 23 6 23 -9z m7415 5 c-5 -8
-125 -50 -143 -50 -18 0 21 22 68 39 62 22 84 25 75 11z m1381 -15 c9 -37 -2
-55 -34 -55 -40 0 -55 20 -42 54 7 20 16 26 40 26 23 0 31 -5 36 -25z m-2861
-22 c39 -20 72 -38 74 -40 3 -2 -13 -21 -34 -43 -44 -45 -81 -52 -110 -20 -10
11 -33 25 -51 32 -19 7 -34 19 -34 28 0 22 51 80 70 80 9 0 47 -16 85 -37z
m-4349 0 c-10 -10 -19 5 -10 18 6 11 8 11 12 0 2 -7 1 -15 -2 -18z m4544 6 c0
-14 -17 -10 -23 5 -4 10 -1 13 9 9 7 -3 14 -9 14 -14z m-4580 -4 c0 -4 -7 -19
-15 -34 -14 -27 -11 -41 7 -41 4 0 8 6 8 14 0 8 5 18 10 21 13 8 6 -23 -25
-120 -13 -38 -35 -108 -50 -155 -32 -101 -77 -162 -142 -192 -36 -17 -49 -19
-64 -10 -10 7 -25 12 -34 12 -20 0 -29 41 -22 106 5 51 26 123 38 134 3 3 19
25 36 50 41 59 181 196 213 209 30 12 40 13 40 6z m-260 -40 c12 -23 11 -27
-8 -45 -12 -11 -24 -20 -27 -20 -3 0 -11 -4 -18 -10 -42 -34 -77 -57 -112 -74
-22 -11 -54 -30 -72 -43 -17 -13 -35 -23 -38 -23 -4 0 -16 -11 -27 -25 -11
-15 -30 -25 -44 -25 -27 0 -76 -28 -70 -39 4 -6 -31 -26 -135 -76 -61 -30 -62
-13 -3 54 65 75 176 166 260 214 32 18 68 39 79 45 32 18 188 92 195 92 4 0
13 -11 20 -25z m-1140 -10 c0 -8 -7 -15 -15 -15 -8 0 -15 7 -15 15 0 8 7 15
15 15 8 0 15 -7 15 -15z m2704 -27 c-22 -37 -115 -141 -177 -201 -75 -70 -132
-107 -167 -107 -31 0 -24 15 14 28 60 22 275 209 276 240 0 6 6 12 14 12 7 0
16 9 19 20 3 11 10 20 17 20 6 0 8 -5 4 -12z m805 3 c8 -2 -22 -31 -31 -31 -6
0 -37 -13 -69 -30 -61 -30 -199 -54 -199 -33 0 5 42 30 93 56 83 42 97 46 147
42 30 -2 57 -4 59 -4z m2468 -35 c32 -19 69 -45 82 -57 l24 -23 -44 -38 c-63
-55 -73 -56 -126 -11 -25 21 -57 47 -70 58 l-25 21 46 42 c25 23 48 42 50 42
3 0 31 -15 63 -34z m962 -19 c-3 -24 1 -37 11 -37 6 0 10 9 10 20 0 49 62 7
170 -116 87 -98 105 -128 126 -209 25 -91 13 -175 -24 -175 -10 0 -23 -5 -29
-11 -16 -16 -63 4 -108 47 -35 33 -85 124 -85 156 0 9 -4 19 -9 22 -5 3 -12
27 -15 53 -7 49 -18 88 -43 157 -20 56 -28 120 -14 111 6 -3 11 -12 10 -18z
m323 -35 c163 -72 387 -233 479 -344 41 -50 58 -88 37 -88 -21 0 -104 58 -162
113 -23 21 -49 37 -63 37 -13 0 -33 9 -45 20 -12 11 -28 20 -35 20 -18 0 -198
135 -241 180 -18 19 -30 40 -27 48 2 7 -2 15 -10 18 -16 7 -21 24 -6 24 5 0
38 -13 73 -28z m-122 8 c0 -5 -4 -10 -10 -10 -5 0 -10 5 -10 10 0 6 5 10 10
10 6 0 10 -4 10 -10z m-3951 -46 c17 -4 31 -9 31 -13 0 -8 -50 -31 -66 -31 -7
0 -14 -3 -16 -7 -8 -19 -197 -76 -231 -71 -16 3 -5 11 43 33 36 16 94 44 130
62 73 37 66 35 109 27z m3035 -128 c26 -32 46 -66 44 -74 -4 -21 -123 -90
-213 -125 -111 -42 -267 -82 -297 -76 -14 3 -7 17 32 69 28 36 50 76 50 90 0
36 8 43 81 79 36 17 96 56 135 84 l69 53 26 -20 c14 -12 47 -48 73 -80z
m-1959 -26 c6 -9 -11 -33 -51 -74 -90 -91 -263 -508 -284 -686 -14 -110 -27
-176 -41 -201 -19 -36 -49 -263 -49 -376 0 -100 -1 -103 -22 -103 -13 0 -36
-7 -52 -15 -15 -8 -33 -15 -39 -15 -12 0 -3 361 13 490 25 201 90 397 202 609
135 256 230 381 289 381 15 0 30 -4 34 -10z m-1595 -66 c47 -8 106 -19 133
-23 86 -15 62 -21 -79 -21 -87 0 -167 6 -213 16 -85 17 -98 23 -80 35 22 14
146 10 239 -7z m-258 -29 c26 -14 82 -31 138 -41 97 -16 122 -24 79 -24 -38 0
-100 -20 -94 -30 3 -5 22 -17 41 -26 53 -26 26 -34 -111 -33 -200 0 -332 33
-365 92 -18 33 -12 39 65 61 112 33 190 33 247 1z m3929 -64 c12 -25 29 -69
39 -97 l18 -51 -72 -31 c-159 -67 -249 -88 -446 -104 -130 -11 -147 -14 -105
-20 88 -11 232 -8 329 7 100 16 139 28 226 68 84 39 82 40 96 -33 20 -103 18
-128 -14 -158 -82 -77 -460 -90 -772 -28 -129 26 -156 29 -145 19 10 -11 88
-37 135 -46 14 -3 51 -12 82 -21 128 -35 514 -48 620 -20 33 8 62 13 65 11 6
-7 -26 -63 -71 -124 l-38 -53 -96 0 c-111 1 -345 15 -414 26 -60 8 -63 -8 -5
-23 87 -23 166 -33 302 -39 77 -3 146 -8 154 -10 15 -5 5 -19 -48 -67 -13 -12
-32 -30 -42 -39 -30 -28 -160 -18 -194 15 -11 11 -22 14 -37 8 -34 -12 -299
55 -391 99 -22 11 -45 20 -50 20 -15 0 -288 134 -357 176 -36 21 -77 45 -92
53 -41 21 -75 59 -57 65 151 44 225 57 280 50 42 -6 49 -4 43 9 -4 13 7 19 53
32 32 9 68 20 79 25 12 4 42 12 68 15 26 4 46 13 46 20 0 6 12 17 28 24 15 7
50 30 77 51 71 54 93 63 155 66 30 2 75 8 100 13 25 6 77 16 115 25 39 8 94
23 124 35 63 24 161 81 161 94 0 20 31 -18 51 -62z m-4275 5 c9 -36 53 -73
124 -103 64 -26 68 -26 285 -26 121 0 252 4 290 8 45 4 81 3 100 -5 l30 -11
-25 -19 c-14 -11 -31 -20 -37 -20 -7 0 -13 -4 -13 -10 0 -5 -12 -10 -26 -10
-46 0 -96 -36 -71 -52 18 -12 27 -9 27 7 0 21 27 30 45 15 12 -10 18 -10 30 0
8 7 15 10 15 7 0 -3 15 -1 33 4 67 20 266 58 310 59 9 0 17 -7 17 -15 0 -15
-140 -87 -195 -101 -14 -3 -28 -10 -31 -15 -3 -5 -14 -9 -24 -9 -10 0 -20 -3
-22 -7 -1 -5 -63 -28 -135 -52 -73 -24 -133 -47 -133 -51 0 -14 21 -16 84 -8
34 4 85 4 114 1 29 -3 63 -1 75 4 12 6 45 18 72 26 28 8 101 36 162 61 62 25
117 46 123 46 29 0 1 -29 -105 -108 -6 -4 -30 -22 -55 -40 -25 -19 -76 -53
-115 -78 -54 -33 -64 -44 -46 -44 21 0 60 15 191 72 60 27 210 115 236 139 12
11 38 22 58 26 31 5 36 3 36 -14 0 -11 -22 -39 -51 -64 -29 -24 -62 -53 -73
-64 -12 -11 -42 -36 -66 -55 -25 -19 -46 -38 -48 -42 -2 -4 -8 -8 -13 -8 -8 0
-81 -52 -99 -70 -3 -3 -33 -23 -68 -45 -34 -22 -82 -55 -107 -72 -24 -18 -50
-33 -57 -33 -8 0 -18 -4 -23 -8 -12 -11 -105 -45 -165 -62 -25 -7 -58 -16 -74
-21 -60 -18 -104 -11 -164 29 -31 20 -68 43 -82 50 -14 7 -41 27 -60 43 l-34
29 91 0 c90 0 158 9 238 32 61 18 67 31 10 22 -77 -13 -386 -9 -415 5 -14 6
-41 23 -60 37 -19 14 -36 20 -38 15 -2 -6 -14 0 -26 12 -41 41 -119 137 -114
142 2 3 38 -7 79 -21 69 -25 86 -27 259 -28 123 0 193 3 210 11 21 10 3 12
-103 12 -244 2 -429 44 -495 114 -24 25 -52 97 -52 133 l0 23 60 -25 c33 -13
91 -31 128 -38 90 -19 243 -30 273 -20 20 6 11 10 -46 20 -38 7 -91 13 -117
13 -100 2 -297 61 -299 91 -6 81 38 143 126 176 43 17 44 16 51 -10z m6684
-81 c23 -28 -9 -72 -45 -59 -36 14 -24 74 15 74 10 0 23 -7 30 -15z m-8151
-18 c8 -10 7 -18 -2 -31 -11 -14 -15 -15 -31 -3 -12 9 -17 20 -13 31 8 19 30
21 46 3z m591 -252 c0 -8 -7 -15 -15 -15 -8 0 -15 7 -15 15 0 8 7 15 15 15 8
0 15 -7 15 -15z m-1322 -37 c28 -28 1 -75 -38 -63 -14 4 -20 15 -20 35 0 37
33 53 58 28z m5137 -104 c81 -52 314 -175 410 -216 194 -82 378 -142 530 -174
104 -22 115 -28 84 -44 -13 -7 -26 -16 -29 -19 -14 -19 -71 -51 -89 -51 -12 0
-21 -4 -21 -10 0 -27 -146 9 -345 85 -66 25 -124 45 -128 45 -9 0 -182 86
-238 117 -20 12 -47 27 -60 35 -13 7 -29 19 -37 26 -7 6 -16 12 -20 12 -4 0
-23 14 -42 31 -19 17 -67 58 -105 90 -61 50 -115 108 -115 123 0 4 22 8 90 14
8 1 60 -28 115 -64z m-1518 -39 c-48 -47 -91 -85 -96 -85 -5 0 -11 -4 -13 -8
-3 -8 -71 -63 -133 -107 -16 -11 -33 -25 -39 -31 -16 -15 -168 -114 -263 -170
-46 -27 -77 -50 -70 -52 24 -5 287 137 446 242 88 58 167 106 176 106 23 0 89
47 165 118 36 33 67 59 69 57 1 -2 -2 -10 -8 -17 -26 -32 -58 -75 -75 -101
-10 -16 -43 -55 -73 -88 -31 -32 -63 -68 -71 -81 -9 -13 -29 -34 -44 -48 -36
-32 -78 -90 -78 -107 0 -32 60 18 257 213 97 96 113 108 113 87 0 -13 -4 -32
-9 -41 -5 -10 -16 -51 -24 -91 -11 -52 -27 -90 -53 -128 -39 -57 -38 -87 1
-40 13 15 26 27 29 27 3 0 3 -39 -1 -87 -5 -86 -25 -146 -58 -180 -8 -8 -20
-22 -27 -31 -28 -38 -57 -50 -101 -41 -23 4 -63 11 -89 14 -27 3 -48 10 -48
14 0 14 83 90 111 103 34 15 36 22 10 40 -11 8 -21 27 -23 43 l-4 30 -8 -29
c-6 -19 -5 -31 4 -36 24 -15 4 -44 -65 -91 -56 -40 -78 -49 -110 -48 -47 1
-137 29 -142 45 -2 5 14 20 34 32 21 11 54 35 73 52 19 16 38 30 41 30 4 0 9
10 12 21 4 13 11 19 19 16 8 -2 18 5 24 18 11 22 10 23 -15 12 -14 -7 -35 -20
-46 -31 -27 -25 -141 -99 -189 -121 -31 -15 -42 -16 -57 -6 -11 6 -44 21 -75
32 -30 12 -54 25 -52 31 2 5 35 23 73 40 83 37 214 122 194 126 -8 1 -61 -20
-118 -48 -56 -27 -118 -57 -138 -65 -52 -22 -133 -10 -218 33 -64 32 -68 35
-50 48 10 8 25 14 33 14 25 0 228 76 242 90 3 3 19 12 35 20 17 8 37 22 45 32
15 17 90 61 165 96 22 11 63 33 90 49 28 16 57 30 65 30 22 0 109 45 176 92
33 22 61 40 64 40 3 0 -34 -38 -83 -84z m513 19 c-7 -24 -17 -44 -21 -44 -5 0
-9 -7 -9 -17 0 -9 -3 -13 -6 -10 -4 3 1 22 10 41 9 19 16 45 16 58 0 14 3 28
7 32 14 14 15 -15 3 -60z m-4286 11 c9 -25 -5 -45 -30 -45 -26 0 -40 20 -30
45 3 8 16 15 30 15 13 0 26 -7 30 -15z m4786 -52 c8 -15 40 -66 71 -113 31
-47 68 -106 82 -131 14 -25 47 -65 74 -88 26 -24 73 -66 103 -95 104 -98 175
-161 209 -186 19 -14 39 -30 45 -35 6 -6 28 -21 49 -34 39 -24 41 -41 4 -41
-12 0 -56 -9 -97 -19 -78 -20 -100 -17 -135 16 -11 10 -36 28 -55 40 -88 55
-233 230 -291 352 -46 96 -99 259 -106 325 -6 56 -5 58 13 48 11 -6 26 -23 34
-39z m2748 -32 c3 -15 -3 -30 -14 -38 -25 -18 -31 -17 -50 12 -13 21 -14 28
-4 41 20 24 64 14 68 -15z m-2298 -81 c128 -80 213 -129 250 -145 25 -10 68
-31 95 -46 28 -16 84 -42 125 -60 41 -17 98 -41 125 -53 28 -13 88 -33 135
-46 145 -39 144 -38 54 -82 -104 -51 -129 -50 -277 14 -143 62 -355 181 -387
217 -3 4 -45 42 -94 86 -85 77 -176 177 -176 195 0 7 70 -30 150 -80z m-525
-22 c39 -105 104 -249 126 -280 23 -31 24 -51 5 -67 -11 -10 -24 15 -74 141
-78 201 -92 240 -92 261 0 30 8 18 35 -55z m427 -49 c23 -19 69 -57 102 -84
34 -28 74 -58 89 -69 22 -13 28 -24 24 -42 -4 -24 8 -34 15 -13 4 13 41 4 60
-14 37 -36 229 -143 336 -188 31 -13 49 -26 44 -31 -9 -9 -133 -43 -222 -60
-60 -12 -103 1 -148 42 -11 11 -34 28 -51 38 -90 55 -214 188 -276 297 -111
197 -118 220 -55 182 22 -13 59 -39 82 -58z m-871 18 c-8 -8 -11 -3 -11 19 1
25 2 27 11 11 8 -14 8 -22 0 -30z m-1696 -37 c10 -11 14 -20 8 -20 -5 0 -18 9
-28 20 -10 11 -14 20 -8 20 5 0 18 -9 28 -20z m-2315 -25 c0 -8 -4 -15 -10
-15 -5 0 -10 7 -10 15 0 8 5 15 10 15 6 0 10 -7 10 -15z m2408 -40 c28 -19 66
-41 84 -49 l33 -14 -28 -1 c-36 -1 -81 22 -127 65 -46 44 -26 43 38 -1z m2322
20 c0 -8 -7 -15 -15 -15 -8 0 -15 7 -15 15 0 8 7 15 15 15 8 0 15 -7 15 -15z
m1228 -42 c-4 -22 -22 -20 -26 1 -2 10 3 16 13 16 10 0 15 -7 13 -17z m312
-100 c0 -21 -29 -28 -46 -11 -14 13 -14 17 1 32 13 13 20 14 31 5 8 -6 14 -18
14 -26z m-3633 -1 c18 -9 62 -33 98 -52 58 -31 63 -36 45 -44 -15 -7 -44 3
-125 42 -58 28 -105 56 -105 62 0 16 52 12 87 -8z m2023 -115 c0 -13 -5 -28
-12 -35 -9 -9 -7 -12 8 -12 13 0 56 -34 107 -85 48 -47 87 -87 87 -89 0 -10
-123 -14 -142 -5 -27 12 -104 161 -93 179 4 6 2 17 -4 24 -17 20 -2 46 25 46
18 0 24 -5 24 -23z m2690 3 c0 -13 -7 -20 -20 -20 -13 0 -20 7 -20 20 0 13 7
20 20 20 13 0 20 -7 20 -20z m-4390 -42 c86 -37 85 -36 78 -43 -7 -7 -108 26
-108 36 0 4 -18 10 -40 14 -22 4 -42 11 -46 16 -11 19 44 8 116 -23z m-1080
-17 c0 -35 19 -52 49 -44 28 7 71 -31 71 -64 0 -13 -9 -33 -19 -45 -18 -19
-33 -21 -178 -24 -88 -2 -171 -8 -186 -13 -40 -16 -34 3 18 55 25 24 45 48 45
53 0 14 79 81 98 82 9 1 25 0 35 -1 11 -1 26 8 34 19 18 27 33 18 33 -18z
m780 -16 c0 -23 -21 -28 -38 -11 -14 14 -15 18 -3 25 18 11 41 3 41 -14z
m1056 -61 c-5 -17 -13 -24 -32 -24 -27 0 -27 2 10 55 17 25 21 27 24 12 2 -10
1 -29 -2 -43z m3839 -4 c0 -18 -6 -26 -21 -28 -26 -4 -40 24 -23 45 18 21 44
11 44 -17z m-4537 -11 c4 -19 -19 -31 -38 -19 -18 11 -4 42 17 38 10 -2 19
-10 21 -19z m2600 -13 c2 -10 -1 -23 -7 -29 -15 -15 -46 16 -37 38 8 21 40 15
44 -9z m-5778 -61 c0 -18 -5 -25 -19 -25 -11 0 -23 5 -26 10 -11 18 3 40 25
40 15 0 20 -7 20 -25z m1313 8 c9 -8 -64 -34 -75 -27 -5 3 -4 12 3 20 12 14
60 19 72 7z m1180 -30 c-7 -2 -19 -2 -25 0 -7 3 -2 5 12 5 14 0 19 -2 13 -5z
m-770 -50 c-18 -7 -16 -91 1 -125 14 -26 19 -121 17 -270 -1 -52 -3 -57 -30
-66 l-29 -10 -11 71 c-15 94 -16 264 -2 300 6 16 11 41 11 57 0 27 21 50 45
49 6 0 4 -3 -2 -6z m-618 -74 c7 -11 69 -238 87 -319 21 -93 23 -90 87 170
l39 155 103 3 c104 3 135 -6 111 -30 -16 -16 -15 -72 3 -259 8 -85 20 -210 26
-279 6 -69 18 -137 25 -152 8 -15 14 -29 14 -33 0 -3 -61 -5 -136 -5 -126 0
-136 1 -128 18 14 32 16 117 5 232 -6 63 -13 150 -17 193 -6 86 -12 90 -26 25
-11 -54 -16 -74 -71 -288 l-44 -175 -49 0 c-48 0 -49 1 -55 35 -3 19 -28 116
-54 215 -26 99 -54 209 -63 245 -20 84 -25 66 -41 -125 -7 -82 -16 -177 -21
-210 -8 -54 -6 -65 16 -108 13 -27 24 -51 24 -53 0 -2 -31 -4 -70 -4 -38 0
-70 2 -70 5 0 2 9 27 20 55 12 31 24 96 30 163 5 62 15 164 22 227 15 132 17
267 4 293 -7 16 1 17 107 17 72 0 118 -4 122 -11z m1007 5 c4 -3 0 -17 -8 -32
-18 -36 -19 -519 -1 -571 22 -63 103 -99 175 -78 48 15 69 33 93 79 17 34 19
60 19 284 0 214 -2 250 -17 275 -10 16 -21 29 -26 29 -4 0 -5 5 -2 10 7 11 94
14 119 4 13 -5 12 -9 -4 -27 -19 -20 -20 -37 -20 -293 0 -150 -4 -284 -9 -298
-55 -144 -363 -186 -492 -66 -64 59 -69 88 -69 379 0 209 -3 260 -15 277 -8
12 -11 24 -8 28 8 8 258 8 265 0z m1096 -10 c79 -6 82 -8 82 -31 0 -32 -15
-60 -53 -100 -27 -29 -37 -33 -83 -33 -72 0 -84 6 -84 44 -1 53 -39 82 -105
78 -75 -5 -109 -43 -89 -101 11 -33 112 -84 198 -101 192 -36 256 -96 256
-238 0 -114 -45 -194 -133 -239 -63 -31 -133 -32 -243 -3 -97 26 -144 26 -173
-2 -35 -31 -55 -14 -59 50 -2 28 2 61 8 72 27 50 121 76 173 49 12 -7 42 -29
67 -49 69 -57 112 -80 150 -80 91 1 123 116 46 168 -42 29 -119 57 -177 65
-59 8 -149 43 -181 70 -50 44 -68 86 -68 166 0 57 5 82 23 115 29 54 41 66 96
93 49 25 94 26 349 7z m625 9 c4 -3 0 -17 -8 -30 -11 -17 -15 -45 -14 -98 l2
-75 66 0 c36 0 80 -4 97 -9 53 -15 64 -1 64 87 -1 51 -5 83 -15 96 -8 10 -12
23 -9 27 7 13 261 11 269 -1 3 -5 3 -10 -2 -10 -27 0 -33 -62 -33 -362 0 -298
5 -358 32 -358 5 0 6 -4 3 -10 -7 -12 -275 -14 -275 -2 1 4 7 18 15 32 11 19
14 71 15 225 l0 201 -72 2 c-40 1 -91 3 -113 4 l-40 3 -3 -209 c-2 -173 0
-213 13 -232 8 -13 15 -26 15 -29 0 -7 -265 -7 -272 0 -3 3 3 22 13 43 17 33
19 63 19 337 0 278 -1 302 -19 332 -11 17 -17 34 -14 37 9 8 258 8 266 -1z
m1266 -18 c46 -27 69 -61 80 -117 10 -59 5 -87 -23 -123 -19 -23 -39 -32 -122
-50 -86 -20 -95 -24 -69 -30 71 -18 155 -86 155 -125 0 -11 4 -20 8 -20 5 0 9
-6 9 -13 0 -27 56 -159 79 -186 23 -27 23 -29 6 -48 -28 -33 -58 -43 -122 -43
-110 0 -150 42 -170 177 -16 108 -29 150 -61 184 -31 33 -64 37 -79 10 -16
-31 -12 -281 5 -311 8 -14 14 -28 15 -32 0 -10 -264 -11 -273 -2 -3 4 3 18 13
32 19 23 20 42 20 348 0 306 -1 325 -19 343 -11 11 -16 22 -13 26 4 3 124 5
267 3 239 -3 263 -5 294 -23z m817 -1 c67 -32 133 -98 171 -173 26 -53 28 -63
28 -181 0 -111 -3 -130 -24 -173 -41 -85 -94 -142 -162 -176 -56 -28 -72 -31
-151 -31 -75 0 -98 4 -143 26 -64 30 -127 97 -164 174 -24 50 -26 66 -26 180
0 116 2 129 27 180 41 83 91 135 161 169 53 26 73 31 145 31 69 0 93 -4 138
-26z m913 5 c28 -12 51 -26 51 -30 0 -5 6 -9 13 -9 20 0 80 -74 113 -138 27
-54 29 -64 29 -182 0 -118 -2 -128 -29 -180 -46 -88 -92 -138 -158 -170 -51
-25 -73 -29 -147 -31 -77 -1 -94 2 -145 27 -266 130 -269 571 -4 703 53 27 72
31 143 31 61 0 95 -5 134 -21z m761 11 c8 -5 12 -10 8 -10 -4 0 -2 -15 3 -32
6 -18 12 -41 14 -50 2 -9 16 -61 30 -115 15 -54 32 -117 37 -141 5 -24 12 -42
14 -39 2 2 26 91 53 198 l49 194 111 3 c87 2 111 0 111 -11 0 -7 -5 -18 -12
-25 -8 -8 -8 -46 1 -154 7 -79 17 -190 21 -248 16 -202 23 -265 30 -270 4 -3
10 -15 14 -27 l7 -23 -135 0 c-75 0 -136 3 -136 8 0 4 6 17 14 28 15 21 11
115 -14 344 -5 47 -9 98 -9 114 -1 39 -11 27 -23 -26 -10 -47 -8 -41 -70 -288
l-45 -175 -46 -3 c-26 -2 -47 -1 -47 2 0 3 -14 58 -31 123 -17 65 -35 136 -40
158 -5 22 -24 99 -42 170 l-34 130 -7 -75 c-16 -184 -28 -299 -36 -350 -7 -47
-5 -61 13 -97 11 -24 25 -43 29 -43 5 0 6 -4 3 -10 -7 -11 -145 -14 -145 -2 0
4 7 20 15 35 17 34 30 108 44 252 6 61 16 162 22 225 11 114 10 189 -5 223 -8
16 1 17 105 17 63 0 121 -5 129 -10z m-1327 -97 c-27 -18 -30 -33 -7 -33 18 0
11 -35 -12 -59 -11 -13 -14 -12 -19 5 -4 10 -13 34 -21 53 -16 36 -13 44 28
66 19 10 26 9 38 -2 13 -13 12 -17 -7 -30z m918 1 c33 -15 59 -31 59 -35 0
-15 -34 -10 -78 11 -22 11 -45 20 -50 20 -6 0 -12 7 -16 15 -8 22 18 19 85
-11z m-4579 -147 c3 -41 12 -88 21 -107 18 -35 16 -47 -3 -35 -23 14 -40 75
-40 145 0 92 16 90 22 -3z m-352 29 c0 -3 -4 -8 -10 -11 -5 -3 -10 -1 -10 4 0
6 5 11 10 11 6 0 10 -2 10 -4z m1190 -2 c0 7 4 6 9 -2 10 -17 14 -132 4 -132
-4 0 -23 27 -42 60 -19 33 -38 60 -43 60 -4 0 -8 4 -8 9 0 4 18 5 40 1 27 -5
40 -4 40 4z m990 -40 c0 -27 -4 -34 -20 -34 -17 0 -20 7 -20 39 0 34 3 38 20
34 15 -4 20 -14 20 -39z m-4084 -80 c7 -27 -4 -373 -12 -386 -8 -13 -43 15
-49 39 -6 27 -23 30 -42 6 -12 -16 -13 -8 -7 62 3 44 10 88 15 97 5 9 9 47 10
85 0 37 4 77 9 88 5 11 9 16 9 12 1 -5 11 -1 23 7 30 22 37 20 44 -10z m4954
-54 c0 -50 16 -133 35 -182 5 -13 2 -18 -8 -18 -15 0 -35 44 -67 145 -7 22
-17 46 -22 52 -7 9 -2 23 18 46 35 40 44 32 44 -43z m2909 33 c7 -14 23 -26
41 -29 25 -5 29 -10 26 -30 -3 -13 0 -26 5 -29 5 -4 9 4 9 17 1 48 30 -58 36
-133 9 -100 -1 -165 -25 -172 -42 -11 -72 5 -88 44 -8 22 -19 39 -23 39 -4 0
-10 46 -13 103 -4 56 -10 133 -13 170 -7 68 -7 69 14 56 11 -7 25 -23 31 -36z
m-7495 -122 c-10 -190 -23 -206 -23 -29 -1 148 3 183 21 172 6 -4 7 -57 2
-143z m3716 107 c0 -13 2 -60 5 -104 4 -76 3 -83 -20 -108 l-25 -27 0 130 c0
124 1 131 20 131 14 0 20 -7 20 -22z m-4416 -19 c14 -13 17 -25 11 -46 -9 -37
-24 -44 -52 -26 -14 9 -38 23 -56 32 -38 19 -47 41 -17 41 13 0 19 4 14 12 -4
6 -3 8 2 5 6 -3 16 -2 23 2 17 11 51 2 75 -20z m8633 -41 c-3 -8 -6 -5 -6 6
-1 11 2 17 5 13 3 -3 4 -12 1 -19z m-6907 -87 c0 -53 -4 -74 -17 -87 -17 -17
-18 -16 -25 27 -11 71 -9 117 5 122 33 14 37 7 37 -62z m508 10 c2 -32 0 -42
-10 -39 -7 3 -14 23 -16 47 -2 32 0 42 10 39 7 -3 14 -23 16 -47z m4941 -86
c1 -11 -4 -27 -9 -35 -16 -24 -52 23 -40 53 4 12 12 31 15 42 7 18 9 17 21
-10 7 -16 13 -39 13 -50z m-931 8 c-2 -10 -10 -18 -18 -18 -8 0 -16 8 -18 18
-2 12 3 17 18 17 15 0 20 -5 18 -17z m-2798 -62 c0 -6 -4 -13 -10 -16 -5 -3
-10 1 -10 9 0 9 5 16 10 16 6 0 10 -4 10 -9z m-1619 -123 c51 -48 51 -51 8
-61 -18 -5 -31 -1 -41 11 -18 20 -48 107 -48 136 1 18 3 16 17 -9 8 -16 38
-51 64 -77z m1583 31 c-4 -30 -9 -48 -11 -41 -3 6 -11 12 -19 12 -8 0 -14 2
-14 5 0 13 42 87 46 82 3 -3 2 -29 -2 -58z m5206 21 c0 -26 -36 -45 -56 -29
-20 16 -18 57 4 62 25 5 52 -11 52 -33z m-6053 -6 c6 -17 -39 -76 -86 -112
-36 -27 -51 -32 -84 -30 -52 4 -58 22 -14 43 19 9 59 38 88 65 51 47 88 60 96
34z m6583 0 c0 -2 -9 -4 -20 -4 -11 0 -20 4 -20 9 0 5 9 7 20 4 11 -3 20 -7
20 -9z m-3717 -14 c9 -11 17 -26 17 -33 0 -12 -92 -77 -109 -77 -17 0 -17 47
1 81 27 50 63 62 91 29z m-5747 -35 c18 -14 18 -14 -8 -15 -18 0 -28 5 -28 15
0 19 11 19 36 0z m187 -2 c-7 -2 -21 -2 -30 0 -10 3 -4 5 12 5 17 0 24 -2 18
-5z m9212 -5 c27 -12 33 -28 11 -28 -25 0 -46 12 -46 26 0 17 2 17 35 2z
m-7322 -18 c23 -28 14 -43 -43 -67 -49 -21 -50 -21 -50 -2 0 10 4 19 9 19 5 0
19 16 31 35 25 41 30 42 53 15z m871 -33 c14 -21 26 -42 26 -47 0 -12 -147
-13 -154 -2 -3 5 5 18 17 29 12 11 30 32 41 46 22 31 34 27 70 -26z m1825 -24
c36 -24 103 -30 264 -24 56 3 67 1 67 -13 0 -9 6 -16 14 -16 9 0 12 -7 9 -20
-3 -11 0 -20 6 -20 6 0 11 5 11 10 0 6 6 10 14 10 16 0 31 -31 18 -39 -5 -3
-11 -14 -15 -23 -6 -16 -21 -18 -120 -18 -74 0 -117 4 -125 12 -7 7 -12 8 -12
2 0 -5 -38 -10 -85 -11 -82 -1 -95 3 -76 23 5 5 12 24 16 42 6 30 4 34 -24 44
-18 7 -32 21 -36 35 -12 48 10 50 74 6z m-4574 17 c-3 -5 -10 -10 -16 -10 -5
0 -9 5 -9 10 0 6 7 10 16 10 8 0 12 -4 9 -10z m3069 -30 c20 -20 -10 -29 -71
-23 -59 5 -76 17 -55 37 9 10 114 -2 126 -14z m2344 -5 c7 -14 12 -35 12 -45
0 -24 21 -70 32 -70 4 0 8 -4 8 -10 0 -12 -130 -13 -149 -1 -12 8 -12 14 2 44
10 19 17 42 17 51 0 19 35 56 53 56 8 0 19 -11 25 -25z m-3961 -9 c24 -3 64
-20 90 -36 51 -32 75 -31 30 2 -15 11 -27 24 -27 29 0 12 207 12 215 0 3 -6
-3 -15 -14 -20 -11 -6 -27 -18 -35 -27 -9 -9 -35 -17 -59 -19 -26 -2 -42 -8
-43 -16 0 -8 -2 -20 -2 -26 -2 -10 -34 -13 -124 -13 -115 0 -125 -2 -150 -24
-27 -22 -28 -28 -28 -114 0 -60 -5 -99 -15 -118 -19 -37 -19 -68 0 -84 11 -9
15 -34 15 -94 0 -109 11 -118 159 -128 124 -8 108 -8 194 -2 37 3 67 2 67 -2
0 -4 -12 -28 -26 -53 l-27 -46 42 40 c22 21 41 45 41 52 0 8 13 13 34 13 58 0
67 -7 60 -51 -4 -26 -3 -39 5 -39 16 0 15 -154 -1 -168 -16 -13 -77 -17 -102
-7 -11 5 -26 4 -36 -3 -13 -8 -20 -8 -28 0 -8 8 -15 8 -25 -1 -11 -9 -17 -8
-27 4 -7 8 -22 15 -33 15 -22 0 -81 17 -109 31 -10 5 -26 9 -36 9 -24 0 -122
49 -122 61 0 5 -6 9 -14 9 -21 0 -199 95 -204 108 -2 7 7 12 22 12 14 0 26 5
26 10 0 6 -8 10 -18 10 -22 0 -98 37 -132 65 -14 11 -31 33 -38 48 -14 34 -16
87 -2 87 6 0 10 -4 10 -10 0 -11 74 -60 90 -60 19 0 9 15 -30 44 -67 50 -87
120 -53 191 20 41 33 45 33 9 0 -33 31 -77 74 -103 49 -30 52 -26 12 17 -36
37 -56 84 -56 132 0 25 44 100 58 100 4 0 15 -18 25 -40 10 -22 25 -40 33 -40
17 0 17 4 4 30 -5 11 -14 29 -20 40 -5 11 -10 25 -10 32 0 17 79 86 122 106
20 9 39 25 41 34 5 18 60 29 87 17 8 -3 34 -9 57 -13z m5240 18 c-3 -3 -12 -4
-19 -1 -8 3 -5 6 6 6 11 1 17 -2 13 -5z m2521 -44 c7 0 12 -4 12 -10 0 -5 -1
-10 -3 -10 -8 0 -97 32 -97 35 0 2 3 10 6 19 5 13 11 12 38 -9 18 -14 38 -25
44 -25z m-5874 18 c11 -42 6 -72 -16 -95 -21 -22 -27 -23 -191 -23 -149 0
-168 2 -157 15 7 8 18 15 24 15 19 0 132 58 146 75 7 9 30 15 54 16 22 1 52 5
66 9 46 15 67 11 74 -12z m1147 -26 c20 -34 25 -53 19 -69 -8 -19 -17 -22 -91
-25 l-82 -3 -18 43 c-40 92 -41 91 43 95 40 1 80 4 88 5 9 1 26 -18 41 -46z
m573 26 c8 -14 7 -21 -5 -33 -18 -19 -45 -11 -52 15 -10 38 35 52 57 18z
m-3814 2 c0 -5 -4 -10 -10 -10 -5 0 -10 5 -10 10 0 6 5 10 10 10 6 0 10 -4 10
-10z m6578 -22 c63 -41 66 -57 10 -60 -65 -2 -87 2 -106 17 -9 8 -28 22 -41
33 -34 26 -19 42 38 42 38 0 60 -7 99 -32z m967 2 c3 -5 -1 -10 -10 -10 -9 0
-13 5 -10 10 3 6 8 10 10 10 2 0 7 -4 10 -10z m294 -40 c9 -13 11 -21 5 -17
-6 3 -24 11 -40 17 -23 9 -25 13 -14 20 20 13 30 8 49 -20z m-2379 -1 c0 -6
-10 -23 -22 -38 -17 -19 -31 -25 -50 -23 -16 2 -28 7 -28 11 0 12 32 39 60 50
33 13 40 13 40 0z m2140 1 c0 -5 -4 -10 -10 -10 -5 0 -10 5 -10 10 0 6 5 10
10 10 6 0 10 -4 10 -10z m-874 -67 c74 -57 124 -105 124 -118 0 -26 -144 -49
-242 -39 l-68 7 0 38 0 39 55 0 c30 0 55 4 55 8 0 5 -11 18 -25 30 -32 28 -32
35 8 55 43 21 37 22 93 -20z m1158 21 c25 -9 19 -24 -9 -24 -24 0 -32 10 -18
23 8 8 8 8 27 1z m-319 -14 c4 -6 -5 -10 -20 -10 -15 0 -24 4 -20 10 3 6 12
10 20 10 8 0 17 -4 20 -10z m-8615 -34 c0 -8 18 -29 39 -48 l39 -33 -39 3
c-41 4 -55 15 -61 47 -2 15 -10 19 -28 17 -24 -4 -25 -3 -5 12 25 19 55 20 55
2z m842 -28 c-7 -7 -12 -8 -12 -2 0 14 12 26 19 19 2 -3 -1 -11 -7 -17z m7513
-14 c47 -19 39 -28 -20 -20 -44 7 -58 19 -32 29 6 3 13 6 13 6 1 1 18 -6 39
-15z m-7999 -23 c5 -5 18 -11 29 -14 11 -3 5 -5 -14 -4 -19 1 -36 8 -39 15 -4
14 10 16 24 3z m1315 -32 c88 -44 104 -219 27 -284 -46 -38 -71 -46 -167 -48
l-86 -2 -5 178 c-3 113 -1 178 5 181 26 10 192 -8 226 -25z m477 -125 c1 -83
-2 -163 -7 -177 -12 -32 -50 -43 -99 -31 -46 12 -62 36 -38 60 15 15 21 16 39
5 38 -24 48 8 47 154 -1 72 -1 134 -1 138 1 5 13 7 29 5 l27 -3 3 -151z m787
147 c6 0 10 -12 10 -26 0 -24 -2 -25 -72 -25 l-73 0 0 -45 0 -45 73 0 c70 0
72 -1 72 -25 0 -24 -2 -25 -72 -25 l-73 0 0 -55 0 -55 74 0 74 0 -7 -27 -8
-28 -89 2 c-49 2 -93 3 -99 3 -6 0 -9 64 -8 177 2 98 3 179 3 179 0 2 178 -3
195 -5z m560 -16 c61 -35 85 -81 85 -160 0 -42 -6 -74 -17 -94 -17 -29 -17
-31 5 -60 12 -17 22 -35 22 -41 0 -19 -65 -11 -83 11 -15 17 -24 19 -45 12
-15 -4 -52 -8 -84 -7 -45 0 -63 5 -92 28 -20 15 -44 39 -53 53 -18 26 -36 154
-24 163 3 3 13 18 21 33 8 16 33 42 55 58 55 39 148 41 210 4z m436 -104 c-2
-122 -2 -124 25 -152 33 -34 71 -38 105 -10 23 18 24 27 29 153 l5 133 33 3
32 3 -1 -128 c0 -72 -5 -143 -12 -163 -24 -69 -115 -99 -207 -67 -58 20 -69
52 -70 207 -1 74 -1 139 -1 143 1 5 15 7 32 5 l31 -3 -1 -124z m584 -56 l0
-180 -30 0 -30 0 -3 170 c-1 93 -1 174 2 181 2 6 17 11 33 10 l28 -1 0 -180z
m493 149 c29 -33 30 -101 1 -138 -18 -22 -28 -26 -75 -26 l-55 0 2 -74 c2 -83
-3 -97 -34 -92 -12 3 -24 5 -27 5 -3 1 -4 326 0 357 0 1 37 0 83 -3 71 -4 85
-8 105 -29z m1135 26 c4 0 7 -11 7 -25 0 -24 -2 -25 -71 -25 l-70 0 3 -42 3
-43 68 -3 c64 -3 67 -4 67 -27 0 -24 -2 -25 -70 -25 l-70 0 0 -55 0 -55 70 0
c67 0 70 -1 70 -24 0 -13 -6 -26 -12 -28 -10 -4 -149 -2 -188 1 -3 1 -4 302 0
358 0 2 42 1 93 -2 50 -3 95 -5 100 -5z m395 -80 c49 -47 103 -98 121 -115
l32 -30 -2 115 -1 115 31 0 c17 0 31 -3 31 -7 0 -5 0 -84 0 -178 0 -103 -4
-170 -10 -170 -9 0 -64 48 -184 163 l-61 57 -5 -112 -5 -113 -30 3 c-16 2 -30
4 -30 5 -3 75 9 357 15 355 5 -2 49 -41 98 -88z m713 81 c12 -1 15 -8 11 -26
-4 -22 -9 -25 -48 -25 l-43 0 -6 -44 c-4 -24 -5 -91 -3 -150 2 -65 -1 -107 -7
-109 -5 -2 -21 -1 -34 2 -23 6 -23 7 -22 155 l2 149 -45 -5 c-42 -5 -44 -4
-48 23 -3 16 -1 30 4 31 7 2 168 1 239 -1z m1639 -1 c0 -5 -5 -10 -11 -10 -5
0 -7 5 -4 10 3 6 8 10 11 10 2 0 4 -4 4 -10z m-3481 -102 c26 -57 53 -114 60
-128 6 -14 9 -17 7 -7 -3 9 -2 17 2 17 4 0 27 44 51 98 25 53 50 103 57 111
17 18 14 26 57 -159 19 -80 36 -151 38 -158 6 -22 -27 -39 -48 -25 -10 6 -17
15 -16 20 2 10 -33 153 -39 157 -2 2 -23 -39 -48 -90 -25 -51 -49 -92 -55 -90
-5 1 -30 43 -55 94 -25 50 -48 91 -51 91 -5 1 -23 -84 -33 -156 -2 -12 -13
-19 -34 -21 -40 -4 -40 -1 -2 148 17 63 30 123 30 132 0 21 18 68 25 68 3 0
28 -46 54 -102z m3121 82 c0 -5 -4 -10 -10 -10 -5 0 -10 5 -10 10 0 6 5 10 10
10 6 0 10 -4 10 -10z m-8295 -9 c7 -12 -12 -24 -25 -16 -11 7 -4 25 10 25 5 0
11 -4 15 -9z m-235 -11 c0 -5 -7 -10 -15 -10 -8 0 -15 5 -15 10 0 6 7 10 15
10 8 0 15 -4 15 -10z m563 3 c-7 -2 -19 -2 -25 0 -7 3 -2 5 12 5 14 0 19 -2
13 -5z m7391 -37 c21 -33 50 -140 43 -159 -3 -8 -29 -23 -58 -32 -58 -20 -184
-16 -289 9 l-55 12 -3 77 -3 77 129 0 c123 0 192 11 192 31 0 18 28 8 44 -15z
m-7679 4 c3 -5 -1 -10 -9 -10 -9 0 -16 5 -16 10 0 6 4 10 9 10 6 0 13 -4 16
-10z m-11 -47 c3 -10 19 -27 36 -38 35 -24 39 -40 8 -31 -13 3 -29 6 -35 6 -7
0 -13 11 -13 25 0 20 -6 25 -35 31 -45 8 -45 24 -1 24 24 0 36 -5 40 -17z
m364 -18 c12 -13 34 -27 49 -31 51 -11 49 -14 -7 -8 -62 6 -130 24 -130 34 0
5 42 25 61 29 3 1 15 -10 27 -24z m3 -113 l22 -19 -46 -6 c-29 -4 -57 -2 -73
5 l-27 13 44 11 c24 7 47 12 50 13 4 1 17 -7 30 -17z m7824 -2 c3 -5 -1 -10
-9 -10 -8 0 -18 5 -21 10 -3 6 1 10 9 10 8 0 18 -4 21 -10z m-730 -60 c41 -7
104 -10 153 -7 45 3 82 2 82 -2 0 -18 -89 -89 -133 -106 -38 -14 -64 -17 -125
-12 -113 9 -112 8 -112 84 l0 65 33 -5 c17 -3 64 -10 102 -17z m475 -20 c0 -5
-4 -10 -10 -10 -5 0 -10 5 -10 10 0 6 5 10 10 10 6 0 10 -4 10 -10z m-6389
-310 c-1 -102 4 -223 10 -270 6 -47 12 -101 14 -120 7 -70 99 -322 123 -340 5
-3 18 -25 31 -50 13 -25 33 -56 45 -70 12 -14 39 -48 59 -77 84 -120 190 -220
323 -305 33 -21 66 -42 74 -48 111 -72 277 -155 439 -219 58 -23 109 -45 115
-50 6 -5 76 -41 156 -82 79 -40 160 -83 179 -96 41 -28 95 -83 88 -90 -3 -3
-28 0 -55 6 -31 6 -61 7 -81 1 -27 -7 -36 -4 -80 31 -27 21 -57 38 -68 37 -42
-3 -56 1 -44 16 18 22 14 24 -357 171 -223 89 -316 138 -506 268 -72 50 -196
182 -259 277 -77 117 -193 357 -227 472 -55 181 -72 295 -77 505 -3 106 -3
200 1 208 4 12 17 15 52 13 l46 -3 -1 -185z m744 174 l20 -15 -20 -15 c-11 -8
-33 -18 -48 -21 -16 -3 -31 -12 -34 -19 -3 -8 -13 -14 -23 -14 -9 0 -31 -7
-49 -16 -38 -19 -84 -11 -114 20 -12 11 -35 26 -51 31 -38 13 -57 42 -36 55 8
5 87 10 175 10 128 -1 164 -4 180 -16z m2017 6 c11 0 58 -96 58 -117 0 -10 -9
-31 -20 -48 -25 -38 -25 -62 -1 -99 14 -22 17 -35 10 -47 -8 -15 -3 -20 30
-30 61 -18 78 -74 86 -281 3 -73 7 -163 9 -199 3 -37 0 -71 -5 -76 -6 -6 3
-20 21 -38 22 -21 30 -38 30 -65 0 -39 -23 -80 -45 -80 -19 0 -30 -21 -16 -29
22 -14 -25 -265 -63 -342 -8 -16 -17 -43 -21 -60 -4 -18 -23 -64 -41 -103 -19
-39 -34 -76 -34 -83 0 -7 -3 -13 -8 -13 -4 0 -12 -10 -17 -22 -9 -20 -19 -23
-74 -26 -35 -2 -68 1 -74 7 -6 6 0 26 17 58 31 54 69 157 116 308 38 125 56
491 30 625 -36 184 -45 224 -67 310 -35 131 -59 209 -98 320 -18 52 -36 104
-39 115 -6 20 -2 20 102 18 59 -2 110 -3 114 -3z m268 0 l25 -7 -28 -12 c-16
-6 -38 -12 -50 -12 -12 -1 2 -6 31 -11 50 -9 53 -11 50 -36 -3 -25 -6 -27 -50
-26 -41 0 -46 -2 -35 -15 6 -9 13 -18 14 -20 1 -2 9 2 18 9 9 7 18 10 22 6 4
-3 -2 -13 -13 -21 -20 -15 -50 -12 -98 11 -42 20 -42 12 -1 -31 26 -28 32 -41
25 -51 -17 -19 -79 -46 -91 -38 -12 7 -5 106 8 128 4 6 6 27 4 47 -1 22 4 48
14 63 15 23 24 26 74 25 31 -1 67 -4 81 -9z m840 0 c-20 -13 -47 -13 -55 0 -4
6 9 10 32 10 28 0 34 -3 23 -10z m319 1 c10 -7 3 -16 -28 -36 -39 -27 -45 -28
-123 -21 -90 7 -127 20 -93 31 11 4 34 12 50 20 34 14 173 18 194 6z m151 -1
c0 -5 -4 -10 -10 -10 -5 0 -10 -9 -10 -20 0 -28 -32 -41 -76 -32 l-38 8 29 19
c69 46 105 58 105 35z m159 -6 c15 -13 -71 -545 -110 -686 -11 -40 -23 -86
-26 -103 -3 -16 -9 -34 -13 -40 -4 -5 -21 -46 -37 -90 -17 -44 -45 -116 -63
-160 -17 -44 -37 -93 -43 -110 -7 -16 -14 -32 -17 -35 -3 -3 -25 -56 -50 -119
-37 -92 -56 -127 -106 -185 -61 -72 -128 -136 -198 -191 -21 -16 -43 -35 -50
-40 -6 -6 -72 -51 -146 -100 -74 -49 -137 -92 -140 -95 -3 -3 -34 -19 -70 -34
-36 -16 -78 -36 -95 -46 -26 -15 -37 -16 -75 -6 -76 19 -62 40 60 90 144 59
198 86 247 122 41 30 42 32 24 48 -17 16 -20 15 -49 -12 -33 -31 -248 -145
-264 -140 -5 2 17 25 49 50 103 83 201 217 250 343 30 76 44 150 59 315 8 88
15 111 45 139 22 20 59 29 59 14 0 -5 -7 -35 -14 -68 -8 -33 -19 -103 -25
-155 -6 -52 -18 -129 -26 -170 -9 -41 -17 -82 -19 -90 -4 -22 -14 -48 -41
-102 l-23 -48 24 0 c14 0 30 -10 40 -25 l16 -24 86 87 c101 102 110 113 182
212 29 41 63 86 75 100 31 34 156 312 199 440 54 162 114 422 131 570 4 30 17
120 31 199 13 79 24 147 24 151 0 7 91 1 99 -6z m648 -29 c17 -24 29 -45 27
-48 -6 -6 -84 31 -101 48 -23 23 -16 45 15 44 20 0 35 -11 59 -44z m248 -22
c36 -37 65 -69 65 -70 0 -8 -86 -2 -128 9 -51 12 -89 34 -140 82 -29 27 -31
31 -15 38 10 3 48 7 85 7 l67 1 66 -67z m132 41 c15 -15 48 -36 73 -47 35 -16
40 -22 25 -25 -11 -2 -24 -8 -29 -13 -20 -18 -73 -8 -122 22 -46 29 -94 71
-94 84 0 3 27 5 59 5 51 0 64 -4 88 -26z m302 9 c67 -14 73 -17 56 -29 -10 -8
-31 -14 -47 -14 -25 0 -28 -3 -28 -35 0 -28 -5 -38 -24 -46 -37 -17 -66 3 -66
47 0 29 -3 35 -16 30 -17 -6 -114 39 -114 53 0 15 159 11 239 -6z m-3619 -103
c0 -5 -4 -10 -10 -10 -5 0 -10 5 -10 10 0 6 5 10 10 10 6 0 10 -4 10 -10z
m3463 3 c-7 -2 -19 -2 -25 0 -7 3 -2 5 12 5 14 0 19 -2 13 -5z m-5173 -23 c0
-5 -4 -10 -9 -10 -6 0 -13 5 -16 10 -3 6 1 10 9 10 9 0 16 -4 16 -10z m5360
-31 c0 -4 -7 -6 -15 -3 -8 4 -15 10 -15 15 0 4 7 6 15 3 8 -4 15 -10 15 -15z
m-4367 -10 c48 -24 97 -67 97 -84 0 -7 19 -33 41 -59 23 -26 40 -48 38 -50 -9
-8 -101 -36 -119 -36 -10 0 -23 -6 -27 -12 -8 -13 -24 -23 -95 -60 -22 -12
-54 -34 -72 -50 -17 -16 -41 -31 -53 -34 -13 -4 -23 -11 -23 -18 0 -6 -20 -31
-45 -56 -25 -25 -54 -60 -66 -77 -11 -18 -24 -33 -29 -33 -30 0 -40 208 -16
333 15 78 45 116 152 193 98 71 144 80 217 43z m4174 -4 c19 -19 9 -33 -11
-16 -10 8 -32 10 -63 7 l-48 -6 45 14 c61 18 59 18 77 1z m-2449 -27 c34 -34
-4 -86 -53 -74 -28 7 -37 29 -25 61 7 19 17 25 38 25 15 0 33 -5 40 -12z m420
-37 c8 -52 -65 -73 -86 -26 -11 23 -9 29 13 51 24 24 28 25 48 11 12 -8 23
-24 25 -36z m-1966 -29 c40 -27 82 -52 93 -56 16 -6 17 -9 5 -16 -47 -30 -115
3 -160 76 -36 58 -31 57 62 -4z m-2204 15 c4 -20 -25 -34 -40 -19 -15 15 -1
44 19 40 10 -2 19 -11 21 -21z m6161 -3 c11 -25 11 -26 -21 -19 -46 10 -56 23
-27 34 34 14 35 14 48 -15z m-6709 2 c0 -8 -5 -18 -11 -22 -14 -8 -33 11 -25
25 10 16 36 13 36 -3z m5686 -13 c-10 -10 -19 5 -10 18 6 11 8 11 12 0 2 -7 1
-15 -2 -18z m-1601 -1 c-3 -3 -11 0 -18 7 -9 10 -8 11 6 5 10 -3 15 -9 12 -12z
m1882 12 c-3 -3 -12 -4 -19 -1 -8 3 -5 6 6 6 11 1 17 -2 13 -5z m280 -10 c-3
-3 -12 -4 -19 -1 -8 3 -5 6 6 6 11 1 17 -2 13 -5z m239 -41 c-7 -7 -26 7 -26
19 0 6 6 6 15 -2 9 -7 13 -15 11 -17z m-1271 -13 c0 -18 -6 -26 -23 -28 -27
-4 -40 22 -22 44 19 22 45 13 45 -16z m-3681 5 c-4 -8 -16 -15 -27 -15 -20 0
-20 0 -1 15 25 19 35 19 28 0z m646 -14 c-6 -13 -17 -17 -30 -14 -37 10 -25
22 33 32 4 0 3 -8 -3 -18z m2458 -12 c-2 -6 -8 -10 -13 -10 -5 0 -11 4 -13 10
-2 6 4 11 13 11 9 0 15 -5 13 -11z m1637 1 c-3 -5 -11 -10 -16 -10 -6 0 -7 5
-4 10 3 6 11 10 16 10 6 0 7 -4 4 -10z m604 -5 c13 -4 19 -11 14 -16 -12 -12
-85 9 -77 22 3 5 13 8 22 5 10 -2 28 -7 41 -11z m-412 -27 c18 -20 18 -21 -7
-13 -45 15 -65 11 -68 -11 -2 -16 10 -29 49 -55 49 -31 56 -54 9 -29 -12 6
-35 8 -51 5 -27 -6 -31 -4 -42 24 -11 31 -30 40 -42 21 -3 -5 -18 -10 -33 -10
l-26 0 34 29 c25 21 39 26 47 19 18 -15 43 -2 43 21 0 35 55 34 87 -1z m208
22 c8 -13 -15 -13 -35 0 -12 8 -11 10 7 10 12 0 25 -4 28 -10z m-625 -10 c0
-5 -4 -10 -10 -10 -5 0 -10 5 -10 10 0 6 5 10 10 10 6 0 10 -4 10 -10z m-6342
-17 c-2 -10 -10 -18 -18 -18 -8 0 -16 8 -18 18 -2 12 3 17 18 17 15 0 20 -5
18 -17z m3213 2 c0 -6 -28 -16 -63 -22 -35 -7 -71 -17 -80 -23 -10 -5 -28 -10
-40 -10 -47 0 9 32 88 50 85 19 96 20 95 5z m179 -4 c0 -23 -18 -31 -45 -20
-11 4 -37 8 -57 8 -27 1 -38 5 -38 16 0 12 14 15 70 15 62 0 70 -2 70 -19z
m1453 4 c1 -5 -6 -11 -15 -13 -11 -2 -18 3 -18 13 0 17 30 18 33 0z m-2988 -5
c3 -5 15 -10 27 -10 16 0 19 -5 14 -24 -4 -15 0 -28 9 -36 26 -21 17 -26 -45
-24 -67 1 -86 10 -47 19 52 14 59 51 11 60 -30 6 -30 6 -9 15 27 12 33 12 40
0z m5491 -7 c18 -24 17 -43 -3 -65 -32 -36 -83 -17 -83 32 0 14 5 31 12 38 18
18 59 15 74 -5z m-3878 -13 c33 -20 42 -50 19 -68 -18 -15 -73 36 -69 66 4 27
8 27 50 2z m-2598 0 c0 -5 -7 -10 -15 -10 -8 0 -15 5 -15 10 0 6 7 10 15 10 8
0 15 -4 15 -10z m1083 -10 c5 -18 4 -18 -19 -3 -29 19 -30 23 -5 23 10 0 21
-9 24 -20z m3993 -78 c-13 -13 -17 9 -9 55 l8 48 3 -49 c2 -26 1 -51 -2 -54z
m460 83 l29 -15 -37 0 c-36 0 -47 8 -31 23 8 9 6 9 39 -8z m-4166 -25 c0 -5
-5 -10 -11 -10 -5 0 -7 5 -4 10 3 6 8 10 11 10 2 0 4 -4 4 -10z m1680 0 c0 -5
-4 -10 -10 -10 -5 0 -10 5 -10 10 0 6 5 10 10 10 6 0 10 -4 10 -10z m-930 -8
c0 -9 -44 -32 -60 -32 -5 0 -32 -14 -59 -32 -48 -29 -71 -33 -57 -9 4 6 35 26
69 45 59 34 107 46 107 28z m2575 -3 c12 -18 -3 -22 -20 -5 -14 14 -14 16 -1
16 8 0 18 -5 21 -11z m655 -10 c0 -18 -2 -19 -15 -9 -15 12 -12 30 6 30 5 0 9
-10 9 -21z m-697 -50 c20 -27 36 -49 33 -49 -2 0 -19 7 -39 15 -30 12 -37 13
-47 0 -9 -11 -7 -19 14 -40 30 -30 33 -40 9 -30 -10 4 -32 9 -50 11 -17 2 -55
14 -84 29 -29 14 -59 25 -66 25 -17 0 -16 8 4 28 45 46 78 61 133 61 54 0 56
-1 93 -50z m639 4 c-2 -34 2 -44 18 -53 25 -14 26 -30 1 -23 -31 8 -34 -15 -5
-42 24 -22 25 -25 7 -25 -10 0 -28 7 -39 15 -10 8 -27 15 -37 15 -11 0 -21 9
-24 20 -4 13 -14 20 -32 20 -25 1 -25 1 -7 15 25 19 14 44 -17 38 -20 -4 -23
-1 -22 19 2 16 8 22 21 21 10 -2 28 2 39 7 27 12 56 18 80 17 17 -2 20 -8 17
-44z m-4057 17 c-3 -5 -10 -10 -16 -10 -5 0 -9 5 -9 10 0 6 7 10 16 10 8 0 12
-4 9 -10z m1450 -24 c9 -25 6 -31 -31 -66 -41 -38 -94 -60 -146 -60 -33 0 -36
13 -8 33 11 8 38 31 60 51 21 20 43 36 47 36 5 0 14 9 21 21 17 27 44 20 57
-15z m70 -47 c4 -46 3 -48 -4 -14 -4 22 -11 51 -15 65 -6 19 -5 22 3 14 6 -6
13 -35 16 -65z m2752 65 c-3 -3 -12 -4 -19 -1 -8 3 -5 6 6 6 11 1 17 -2 13 -5z
m-4587 -14 c0 -5 -4 -10 -10 -10 -5 0 -10 5 -10 10 0 6 5 10 10 10 6 0 10 -4
10 -10z m3336 -5 c14 -13 13 -15 -4 -15 -29 0 -53 11 -46 21 8 14 34 11 50 -6z
m-776 -36 c0 -40 -17 -36 -22 5 -3 24 0 32 9 29 7 -3 13 -18 13 -34z m595 21
c18 -20 17 -20 -8 -20 -20 0 -27 -5 -27 -20 0 -17 -4 -19 -27 -14 -67 16 -70
21 -25 33 24 7 46 19 49 27 7 19 17 18 38 -6z m921 -28 c-12 -11 -18 7 -10 30
l8 23 4 -23 c2 -13 1 -26 -2 -30z m-4276 28 c0 -5 -7 -10 -15 -10 -8 0 -15 5
-15 10 0 6 7 10 15 10 8 0 15 -4 15 -10z m335 -48 c-1 -1 -14 2 -29 8 -15 5
-38 10 -52 10 -30 0 -31 14 -1 27 18 8 28 6 53 -16 17 -14 30 -27 29 -29z
m2535 38 c0 -5 -7 -10 -15 -10 -8 0 -15 5 -15 10 0 6 7 10 15 10 8 0 15 -4 15
-10z m-1670 -13 c0 -7 -19 -28 -41 -47 -23 -19 -47 -39 -53 -46 -7 -6 -21 -14
-32 -16 -10 -2 -20 -12 -23 -23 -2 -11 -13 -33 -26 -50 -12 -16 -25 -38 -28
-47 -4 -10 -13 -18 -21 -18 -8 0 -26 -14 -41 -31 l-26 -32 7 28 c4 15 15 36
25 46 10 10 24 31 32 46 8 15 35 47 60 70 25 23 47 46 49 51 4 11 99 82 109
82 5 0 9 -6 9 -13z m1910 3 c0 -5 -2 -10 -4 -10 -3 0 -8 5 -11 10 -3 6 -1 10
4 10 6 0 11 -4 11 -10z m-2544 -21 c19 -22 19 -22 -8 -15 -39 9 -78 25 -78 31
0 3 15 5 33 5 22 0 41 -8 53 -21z m2589 11 c3 -5 1 -10 -4 -10 -6 0 -11 5 -11
10 0 6 2 10 4 10 3 0 8 -4 11 -10z m535 -28 c20 -9 44 -33 55 -54 17 -32 18
-41 7 -71 -6 -18 -12 -54 -12 -80 0 -45 -1 -47 -28 -47 -16 0 -36 6 -45 13
-25 18 -284 14 -363 -5 -33 -9 -70 -20 -82 -27 -32 -17 -35 3 -7 46 97 150
158 219 201 228 16 4 34 8 39 10 6 2 53 4 105 4 72 1 104 -3 130 -17z m-3803
-34 c-3 -8 -6 -5 -6 6 -1 11 2 17 5 13 3 -3 4 -12 1 -19z m3035 0 c-4 -4 -19
-10 -34 -13 -21 -5 -28 -3 -28 8 0 10 10 14 34 13 19 0 32 -4 28 -8z m-2377
-18 c25 -28 12 -36 -29 -16 -19 9 -39 16 -45 16 -6 0 -11 5 -11 10 0 19 66 11
85 -10z m1405 6 c0 -18 -27 -39 -51 -41 -28 -2 -20 26 11 42 32 16 40 16 40
-1z m149 -49 c1 -4 -10 -5 -23 -1 -31 8 -43 -12 -20 -37 22 -25 14 -32 -20
-16 -20 9 -25 17 -20 32 3 11 8 35 11 53 l5 32 33 -27 c19 -16 34 -31 34 -36z
m685 28 c3 -8 1 -15 -4 -15 -6 0 -10 7 -10 15 0 8 2 15 4 15 2 0 6 -7 10 -15z
m-484 -25 c0 -13 -10 -22 -32 -28 -38 -10 -62 -3 -29 9 12 5 24 15 27 24 9 22
34 18 34 -5z m60 0 c0 -6 11 -8 26 -4 19 5 25 4 20 -5 -4 -6 -23 -11 -42 -11
-32 0 -42 8 -27 23 10 10 23 8 23 -3z m-1856 -16 c9 -3 16 -12 16 -20 0 -10
-6 -11 -30 -2 -17 5 -33 14 -36 19 -6 10 26 12 50 3z m1349 -1 c-7 -2 -21 -2
-30 0 -10 3 -4 5 12 5 17 0 24 -2 18 -5z m-2718 -23 c8 -27 -12 -52 -39 -48
-21 3 -32 28 -22 54 8 22 54 18 61 -6z m1621 -8 c-8 -7 -76 8 -76 17 0 5 18 4
40 -1 23 -6 39 -13 36 -16z m1082 -4 c67 3 72 -2 50 -51 -18 -38 -63 -45 -119
-17 -23 12 -49 29 -57 36 -7 8 -17 14 -22 14 -4 0 -11 7 -14 16 -5 14 1 15 46
8 29 -4 81 -7 116 -6z m-384 -61 c4 -19 3 -26 -4 -22 -5 3 -10 18 -10 32 0 32
5 28 14 -10z m-1808 -1 c16 -19 20 -43 12 -62 -21 -45 -82 -36 -94 13 -9 33
27 67 60 57 12 -4 21 -7 22 -8z m2006 -111 l40 -50 -32 -13 c-18 -7 -39 -12
-47 -10 -19 4 -107 164 -98 178 9 15 91 -47 137 -105z m-217 10 c39 -82 124
-219 164 -266 44 -52 74 -100 110 -174 55 -113 67 -148 80 -241 6 -44 13 -91
16 -106 3 -20 -2 -34 -17 -48 -12 -11 -25 -17 -28 -13 -4 5 -12 40 -20 78 -30
162 -136 395 -232 510 -80 95 -173 309 -148 340 7 8 16 15 21 15 4 0 29 -43
54 -95z m210 80 c28 -6 157 -54 164 -61 11 -10 -55 -53 -83 -54 -21 0 -40 12
-75 48 -26 26 -53 56 -61 66 -14 18 -13 19 10 12 14 -4 34 -9 45 -11z m-161
-51 c10 -37 2 -39 -11 -4 -6 17 -8 30 -3 30 4 0 11 -12 14 -26z m1316 16 c0
-5 -2 -10 -4 -10 -3 0 -8 5 -11 10 -3 6 -1 10 4 10 6 0 11 -4 11 -10z m885
-20 c8 -13 -15 -13 -35 0 -12 8 -11 10 7 10 12 0 25 -4 28 -10z m-4409 -34
c27 -27 34 -42 34 -74 0 -70 -48 -102 -166 -110 l-85 -5 42 -43 c41 -42 42
-45 26 -61 -16 -17 -21 -13 -92 61 -42 44 -73 81 -70 84 3 3 56 8 117 12 119
7 145 14 165 39 18 23 16 38 -8 62 -14 14 -28 19 -47 15 -17 -4 -35 0 -47 10
-20 15 -20 15 -1 30 11 8 37 14 59 14 31 0 46 -7 73 -34z m1627 19 c-3 -9 -8
-14 -10 -11 -3 3 -2 9 2 15 9 16 15 13 8 -4z m2926 -31 c28 -15 50 -29 47 -32
-6 -5 -146 46 -146 54 0 12 53 1 99 -22z m1656 -1 c26 -29 45 -80 45 -124 0
-15 3 -41 6 -58 l7 -32 41 40 c37 36 43 38 60 26 18 -14 15 -19 -61 -96 l-79
-81 -16 126 c-12 106 -19 130 -38 151 -27 29 -39 31 -65 11 -14 -10 -19 -25
-18 -54 2 -51 -21 -77 -43 -47 -29 39 -9 117 38 149 37 26 93 20 123 -11z
m-4599 -41 c-12 -11 -18 7 -10 30 l8 23 4 -23 c2 -13 1 -26 -2 -30z m4249 3
c0 -25 -4 -31 -27 -33 -19 -2 -30 3 -38 18 -15 28 4 52 39 48 22 -2 26 -8 26
-33z m-225 -16 c0 -25 -33 -22 -38 4 -2 12 3 17 17 17 15 0 21 -6 21 -21z
m874 5 c19 -18 19 -20 6 -45 -15 -27 -48 -24 -62 7 -11 22 -10 28 7 40 24 18
30 18 49 -2z m-3590 -13 c10 -16 -5 -41 -24 -41 -20 0 -30 17 -22 38 5 14 38
16 46 3z m-1303 -77 c7 -62 18 -94 45 -131 13 -18 14 -23 3 -23 -26 0 -39 16
-59 71 -23 62 -27 153 -7 147 7 -3 15 -30 18 -64z m319 56 c0 -5 -7 -10 -16
-10 -8 0 -12 5 -9 10 3 6 10 10 16 10 5 0 9 -4 9 -10z m167 -58 c5 -48 4 -52
-14 -52 -38 0 -47 25 -27 74 22 53 32 48 41 -22z m3563 33 c0 -8 -4 -15 -10
-15 -5 0 -10 7 -10 15 0 8 5 15 10 15 6 0 10 -7 10 -15z m-1700 -25 c0 -5 -7
-10 -15 -10 -8 0 -15 5 -15 10 0 6 7 10 15 10 8 0 15 -4 15 -10z m-50 -92 c58
-20 117 -38 133 -42 23 -5 26 -10 21 -31 -6 -25 10 -36 19 -12 8 22 20 -2 13
-28 -8 -30 -36 -33 -43 -4 -4 13 -8 17 -13 9 -4 -6 -26 -14 -49 -17 -26 -4
-41 -11 -41 -20 0 -8 -7 -13 -17 -11 -12 2 -17 11 -15 26 2 15 -2 22 -14 22
-22 0 -90 37 -141 79 -37 29 -43 39 -43 72 l0 39 43 -24 c23 -13 89 -39 147
-58z m2013 2 c-45 -40 -49 -50 -33 -81 11 -19 12 -18 41 11 44 43 96 42 147
-4 34 -31 37 -39 36 -85 0 -39 -6 -57 -25 -77 -31 -33 -71 -54 -104 -54 -21 0
-25 5 -25 30 0 27 3 30 32 30 41 0 68 25 68 64 -1 46 -24 70 -66 70 -28 0 -43
-7 -60 -28 -13 -15 -24 -34 -24 -42 0 -32 -22 -10 -55 56 -19 38 -35 73 -35
78 0 4 25 29 57 55 52 44 58 47 72 32 15 -15 12 -20 -26 -55z m-5745 46 c74
-38 98 -112 53 -160 -26 -28 -89 -51 -165 -62 l-50 -7 44 -40 c32 -30 40 -44
34 -55 -6 -8 -13 -15 -18 -14 -12 0 -166 135 -161 141 3 2 55 12 117 22 148
24 197 60 152 111 -15 15 -27 19 -55 14 -59 -9 -79 33 -25 54 30 13 44 12 74
-4z m201 5 c14 -9 9 -41 -6 -41 -19 1 -33 18 -27 33 7 19 13 21 33 8z m2235
-13 c22 -35 -27 -74 -59 -48 -18 15 -20 56 -2 64 22 9 50 1 61 -16z m1881 2
c17 -18 17 -21 1 -45 -19 -29 -42 -32 -68 -8 -22 20 -23 31 -1 55 21 23 45 23
68 -2z m-4930 -45 c0 -13 -8 -21 -22 -23 -17 -3 -23 2 -23 16 0 10 3 22 7 26
13 13 38 1 38 -19z m3360 -35 c0 -8 -8 -16 -17 -18 -13 -2 -18 3 -18 18 0 15
5 20 18 18 9 -2 17 -10 17 -18z m1895 16 c0 -3 -4 -8 -10 -11 -5 -3 -10 -1
-10 4 0 6 5 11 10 11 6 0 10 -2 10 -4z m-63 -28 c-3 -8 -6 -5 -6 6 -1 11 2 17
5 13 3 -3 4 -12 1 -19z m-212 -19 c-14 -26 -21 -30 -43 -25 -26 6 -26 6 -7
-10 15 -12 17 -18 7 -21 -10 -4 -8 -9 7 -20 26 -18 27 -39 2 -52 -25 -14 -42
6 -34 38 5 20 3 22 -14 17 -14 -4 -27 2 -46 24 -37 41 -35 54 6 46 18 -3 37
-3 41 1 8 9 65 30 84 32 9 1 8 -7 -3 -30z m-175 -40 c24 -33 24 -36 -5 -41
-21 -3 -51 44 -40 62 10 17 23 11 45 -21z m1085 -34 c0 -25 -4 -30 -25 -30
-19 0 -26 6 -28 24 -4 25 13 43 38 38 9 -1 15 -13 15 -32z m-2408 3 c-3 -8 -6
-5 -6 6 -1 11 2 17 5 13 3 -3 4 -12 1 -19z m-467 2 c0 -5 -7 -10 -15 -10 -8 0
-15 5 -15 10 0 6 7 10 15 10 8 0 15 -4 15 -10z m-2117 -46 c43 -40 51 -70 30
-113 -12 -24 -28 -38 -48 -44 -26 -7 -31 -14 -31 -41 0 -99 -119 -127 -189
-44 -44 52 -27 147 20 108 9 -7 12 -22 9 -39 -5 -22 0 -33 21 -50 34 -26 50
-26 75 -1 24 24 26 65 5 74 -17 6 -20 42 -4 52 6 3 16 1 22 -5 15 -15 50 -14
65 1 35 35 -4 85 -57 73 -39 -8 -64 21 -36 41 31 23 86 17 118 -12z m5282 1
c16 -15 25 -36 25 -55 0 -25 4 -30 24 -30 13 0 38 -13 55 -29 42 -40 43 -87 1
-135 -76 -86 -190 -59 -190 45 0 32 -3 37 -30 42 -19 4 -34 17 -45 36 -19 38
-19 56 1 90 37 62 116 80 159 36z m-1345 0 c17 -20 5 -45 -20 -45 -23 0 -35
22 -26 45 7 19 30 19 46 0z m-3122 -61 c48 -76 52 -91 17 -68 -14 9 -25 24
-25 33 0 9 -10 21 -22 26 -16 7 -24 20 -26 43 -2 17 0 32 5 32 4 0 27 -30 51
-66z m1790 16 c-3 -27 -2 -50 3 -50 4 0 9 -10 11 -22 2 -13 10 -23 18 -23 12
0 15 -13 14 -60 -1 -46 -9 -75 -34 -127 -18 -37 -40 -74 -49 -82 -15 -13 -81
-32 -81 -24 0 3 11 31 24 64 13 32 31 91 41 129 9 39 21 82 27 97 6 16 6 33 0
45 -11 22 4 103 20 103 7 0 9 -18 6 -50z m3162 -20 c-11 -21 -30 -27 -30 -11
0 5 5 22 11 38 9 25 12 26 20 11 7 -12 6 -25 -1 -38z m-3733 18 c-3 -8 -6 -5
-6 6 -1 11 2 17 5 13 3 -3 4 -12 1 -19z m993 -34 c0 -8 -7 -14 -15 -14 -15 0
-21 21 -9 33 10 9 24 -2 24 -19z m-2107 -35 c23 -23 52 -51 65 -63 12 -11 18
-22 13 -24 -23 -8 -95 48 -117 90 -27 52 -17 51 39 -3z m1147 6 c0 -5 -5 -3
-10 5 -5 8 -10 20 -10 25 0 6 5 3 10 -5 5 -8 10 -19 10 -25z m467 -17 c-3 -7
-5 -2 -5 12 0 14 2 19 5 13 2 -7 2 -19 0 -25z m-1273 -4 c9 -3 16 -17 16 -30
0 -32 -47 -45 -66 -19 -25 34 8 65 50 49z m566 -10 c0 -17 -22 -14 -28 4 -2 7
3 12 12 12 9 0 16 -7 16 -16z m3180 2 c0 -2 3 -11 6 -19 3 -10 -11 -25 -45
-46 -28 -17 -51 -33 -51 -35 0 -3 4 -16 10 -31 l10 -26 30 23 c59 43 132 22
164 -47 24 -49 14 -93 -29 -135 -27 -26 -44 -34 -85 -38 l-52 -5 4 29 c3 26 6
29 36 26 65 -7 104 62 66 116 -21 30 -79 30 -111 0 -13 -12 -23 -28 -23 -36 0
-7 -5 -12 -12 -10 -12 4 -58 121 -58 148 0 9 26 32 58 53 50 33 82 45 82 33z
m-2782 -103 c-10 -48 -18 -89 -18 -90 0 -2 -4 -3 -9 -3 -20 0 -20 61 -1 98 11
20 20 46 20 58 0 23 9 36 20 29 3 -2 -2 -44 -12 -92z m112 82 c0 -8 -4 -15 -9
-15 -13 0 -22 16 -14 24 11 11 23 6 23 -9z m192 8 c-8 -3 -11 -15 -7 -36 7
-34 -33 -177 -58 -211 -11 -15 -17 -16 -35 -7 -11 6 -37 11 -56 11 -20 0 -36
1 -36 3 0 13 47 89 77 125 54 62 82 95 94 110 5 6 15 12 22 11 9 0 8 -2 -1 -6z
m-2271 -39 c33 -19 59 -37 59 -39 0 -14 -14 -35 -24 -35 -6 0 -31 13 -55 29
-42 28 -45 29 -67 13 -30 -22 -30 -27 5 -42 68 -28 78 -122 19 -181 -29 -29
-36 -31 -85 -27 -44 4 -60 11 -88 38 -37 36 -46 74 -19 84 26 10 34 7 34 -12
0 -28 38 -62 68 -62 46 0 72 26 72 71 0 34 -5 42 -32 59 -18 11 -43 20 -55 20
-13 0 -23 3 -23 7 0 14 104 113 118 113 8 0 41 -16 73 -36z m1836 14 c-3 -8
-6 -5 -6 6 -1 11 2 17 5 13 3 -3 4 -12 1 -19z m1153 -33 c0 -8 -7 -15 -15 -15
-8 0 -15 7 -15 15 0 8 7 15 15 15 8 0 15 -7 15 -15z m1303 -10 c18 -17 12 -51
-10 -59 -37 -15 -69 34 -41 62 16 16 33 15 51 -3z m-348 -5 c3 -5 1 -10 -4
-10 -6 0 -11 5 -11 10 0 6 2 10 4 10 3 0 8 -4 11 -10z m-2267 -43 c4 -22 -27
-35 -38 -16 -10 15 7 42 24 36 6 -2 12 -11 14 -20z m1493 -47 c5 -4 12 -21 15
-40 10 -48 -11 -31 -30 26 -9 26 -12 52 -8 58 4 6 8 1 10 -14 2 -14 8 -27 13
-30z m679 35 c0 -8 -9 -15 -20 -15 -20 0 -26 11 -13 23 12 13 33 7 33 -8z
m659 -120 c36 -64 59 -94 68 -91 19 8 43 -4 43 -20 0 -8 -7 -14 -15 -14 -18 0
-19 -14 -4 -41 7 -15 7 -24 -2 -35 -17 -20 -28 -17 -41 11 -6 14 -15 25 -19
25 -4 0 -36 -16 -69 -36 -34 -20 -63 -34 -66 -32 -4 4 22 256 32 306 2 12 8
22 12 22 4 0 32 -43 61 -95z m-4272 70 c38 -10 73 -62 73 -105 0 -58 -42 -99
-157 -156 -76 -37 -97 -44 -104 -33 -17 28 -8 38 52 60 55 20 60 24 43 36 -10
7 -21 13 -26 13 -12 0 -38 56 -38 82 0 54 75 125 120 113 8 -2 25 -6 37 -10z
m2453 11 c0 -3 -4 -8 -10 -11 -5 -3 -10 -1 -10 4 0 6 5 11 10 11 6 0 10 -2 10
-4z m-3245 -38 c8 -22 -11 -48 -34 -48 -38 0 -56 51 -25 68 23 13 52 3 59 -20z
m1932 -13 c13 -30 -1 -34 -29 -8 -23 20 -23 33 0 33 9 0 22 -11 29 -25z m75
-43 c12 -20 24 -30 26 -24 6 18 19 15 45 -12 13 -12 28 -25 35 -27 6 -2 12
-24 14 -49 3 -39 0 -45 -17 -45 -14 0 -21 9 -26 32 -8 41 -26 63 -50 63 -22 0
-65 54 -75 95 -7 27 -6 29 9 16 9 -7 27 -29 39 -49z m3698 9 c-52 -20 -110
-45 -128 -55 -36 -19 -48 -16 -39 8 7 19 59 41 152 66 111 30 118 22 15 -19z
m-3102 -12 c18 -11 45 -19 60 -19 34 0 78 -23 75 -38 -4 -15 19 -16 34 -1 19
19 53 0 60 -32 7 -35 20 -38 29 -4 14 55 70 58 103 4 19 -31 36 -26 25 8 -6
16 -5 16 13 -2 10 -11 25 -29 31 -40 10 -17 11 -15 9 20 -2 35 1 40 21 43 28
4 52 -14 52 -39 0 -23 16 -25 24 -4 9 24 78 18 135 -11 28 -15 51 -31 51 -36
0 -5 5 -6 11 -2 19 11 59 -17 59 -43 0 -13 6 -23 13 -22 29 4 37 -3 37 -31 0
-27 2 -30 19 -20 16 8 23 6 35 -12 20 -27 7 -38 -46 -38 -31 0 -46 -8 -79 -41
-34 -34 -46 -40 -69 -35 -18 3 -33 0 -41 -10 -6 -8 -14 -12 -17 -9 -3 3 -13
-2 -23 -11 -20 -18 -39 -11 -39 14 0 10 -10 26 -22 36 -21 19 -22 19 -36 -2
-20 -30 -65 -29 -89 1 -10 13 -24 22 -31 19 -7 -2 -27 2 -44 9 -17 7 -46 12
-65 11 -18 -2 -33 2 -33 8 0 5 -7 10 -15 10 -8 0 -15 -4 -15 -8 0 -5 -29 -9
-65 -8 -58 1 -67 -2 -90 -26 -14 -16 -29 -28 -33 -28 -25 1 -52 15 -52 27 0
21 -32 51 -38 35 -5 -15 -34 -16 -50 0 -10 10 -16 7 -30 -12 -20 -29 -22 -42
-8 -52 23 -15 -26 -19 -49 -4 -23 15 -34 37 -17 35 29 -5 36 2 19 19 -11 11
-35 18 -65 19 -26 1 -71 5 -100 9 -49 6 -52 8 -38 23 10 11 12 21 6 27 -15 15
15 87 43 104 23 13 32 12 82 -4 31 -10 59 -15 63 -12 6 7 9 4 -50 45 -39 26
-52 30 -67 21 -27 -14 -31 -13 -31 8 0 11 9 27 20 37 33 30 84 12 147 -51 29
-30 53 -48 53 -40 0 20 -98 126 -117 126 -29 0 -6 25 27 28 18 2 39 10 47 18
19 19 116 9 161 -17z m1890 -6 c-15 -15 -31 -23 -35 -19 -4 4 3 16 17 26 37
29 49 24 18 -7z m382 17 c0 -5 -4 -10 -10 -10 -5 0 -10 5 -10 10 0 6 5 10 10
10 6 0 10 -4 10 -10z m-451 -27 c15 -13 19 -25 15 -41 -6 -20 -12 -23 -48 -20
-35 3 -42 7 -44 27 -3 15 3 30 14 38 24 17 38 16 63 -4z m-1202 -19 c-3 -3
-12 -4 -19 -1 -8 3 -5 6 6 6 11 1 17 -2 13 -5z m-1814 -45 c95 -38 122 -52
110 -56 -10 -4 -55 14 -148 58 -54 25 -27 24 38 -2z m2057 -2 c0 -12 -9 -30
-20 -40 -30 -25 -41 -21 -28 11 24 55 48 70 48 29z m1319 -3 c26 -33 28 -107
5 -183 -8 -29 -13 -55 -11 -57 2 -3 26 5 52 16 48 21 65 17 65 -15 -1 -9 -190
-98 -196 -92 -2 2 10 50 26 106 34 117 37 162 14 185 -32 32 -84 11 -84 -34 0
-20 -6 -31 -21 -35 -32 -11 -44 8 -33 52 19 77 138 114 183 57z m-2944 6 c-3
-5 -10 -10 -16 -10 -5 0 -9 5 -9 10 0 6 7 10 16 10 8 0 12 -4 9 -10z m-698
-22 c-3 -7 -25 -55 -48 -106 -39 -84 -42 -95 -27 -103 24 -14 11 -42 -16 -35
-17 4 -24 -1 -33 -25 -11 -27 -14 -29 -33 -19 -21 11 -22 22 -6 61 5 12 -9 22
-64 44 -38 15 -70 31 -70 34 1 9 273 161 289 161 7 0 11 -6 8 -12z m3023 4 c0
-12 -39 -42 -55 -42 -8 0 -15 -4 -15 -10 0 -5 -4 -10 -10 -10 -21 0 -9 18 19
30 16 6 32 18 35 26 6 15 26 20 26 6z m-1968 -52 c3 -17 1 -33 -4 -36 -12 -7
-32 42 -24 61 9 23 23 10 28 -25z m-236 1 c5 -5 16 -11 26 -13 13 -2 14 -5 3
-15 -10 -9 -19 -7 -42 12 -19 17 -23 25 -12 25 8 0 19 -4 25 -9z m-588 -47
c50 -19 92 -39 92 -43 0 -7 -146 -145 -233 -221 -36 -31 -39 -32 -55 -16 -16
17 -11 23 93 121 60 57 108 105 105 108 -3 2 -33 14 -67 27 -35 12 -63 24 -63
25 0 14 14 35 24 35 6 0 53 -16 104 -36z m2190 9 c4 -16 -22 -27 -43 -19 -22
8 -6 38 18 34 11 -2 22 -9 25 -15z m923 -12 c19 -16 24 -29 24 -69 0 -43 3
-51 26 -65 37 -20 55 -77 37 -114 -34 -70 -133 -95 -182 -46 -26 25 -26 28
-10 40 24 18 41 16 48 -3 5 -13 15 -15 43 -11 41 7 53 20 53 58 0 35 -18 49
-62 49 -50 0 -59 22 -22 53 25 22 27 27 16 51 -19 43 -92 26 -92 -21 0 -20
-32 -38 -44 -25 -11 10 -6 58 7 75 34 45 118 60 158 28z m809 -1 c0 -5 -4 -10
-10 -10 -5 0 -10 5 -10 10 0 6 5 10 10 10 6 0 10 -4 10 -10z m-5057 -20 c44
-11 63 -26 35 -27 -7 0 -21 -4 -30 -8 -10 -4 -18 -3 -18 2 0 6 -18 16 -40 23
-42 14 -57 36 -17 27 12 -3 43 -11 70 -17z m1847 -41 c0 -24 -12 -24 -34 0
-13 15 -14 20 -4 23 21 8 38 -3 38 -23z m-1692 0 c26 -7 52 -16 58 -20 5 -5
19 -6 31 -3 12 4 36 -4 59 -19 61 -38 187 -96 225 -103 19 -4 48 -17 66 -30
17 -13 36 -24 42 -24 6 0 11 -4 11 -10 0 -5 4 -10 10 -10 5 0 38 -20 73 -45
36 -25 75 -45 88 -46 13 0 44 -13 69 -29 92 -58 246 -130 290 -135 47 -6 129
-41 142 -62 5 -6 28 -21 53 -33 42 -20 91 -67 81 -78 -10 -10 -75 21 -81 38
-7 22 -33 45 -42 37 -3 -4 0 -13 7 -22 19 -23 7 -27 -38 -13 -39 12 -62 39
-62 73 0 8 -8 15 -17 15 -13 0 -14 -3 -5 -12 19 -19 14 -38 -10 -38 -41 0
-307 130 -463 225 -22 13 -67 38 -100 55 -33 18 -72 43 -87 58 -16 14 -36 26
-46 27 -10 1 -39 16 -64 33 -26 18 -51 32 -57 32 -17 0 -84 42 -118 73 -27 25
-35 28 -48 17 -8 -7 -15 -8 -15 -3 0 5 -6 10 -12 10 -19 1 -115 52 -100 52 7
1 34 -4 60 -10z m3815 -29 c5 -20 5 -20 -70 -40 -40 -10 -43 -13 -43 -45 l0
-34 36 15 c74 31 144 -24 144 -114 0 -34 -6 -49 -28 -72 -46 -45 -129 -59
-169 -28 -11 9 -5 35 12 56 2 2 14 -3 27 -12 53 -35 121 21 100 82 -18 56 -82
66 -130 21 -13 -11 -26 -18 -29 -15 -4 4 -9 44 -11 91 -4 78 -3 85 14 85 11 0
37 7 59 15 56 20 82 19 88 -5z m-2558 -2 c16 -7 24 -17 21 -27 -91 -321 -83
-299 -111 -293 -14 2 -25 6 -25 9 0 2 16 59 35 126 42 147 43 157 10 157 -24
0 -34 18 -18 33 10 11 60 8 88 -5z m1111 -69 c3 -6 2 -15 -4 -21 -6 -6 -11 -2
-15 11 -5 22 7 29 19 10z m-816 -8 c19 -5 47 -12 63 -15 19 -5 27 -13 27 -28
0 -19 -4 -20 -42 -14 -24 3 -52 8 -63 11 -15 4 -24 -2 -37 -25 l-17 -30 27 0
c38 0 90 -35 98 -65 10 -42 -3 -105 -27 -131 -43 -46 -140 -41 -189 11 -19 20
-21 27 -10 40 17 21 31 19 59 -10 32 -34 73 -33 101 2 16 20 20 36 16 58 -9
43 -33 57 -88 52 -27 -2 -48 0 -48 4 0 5 14 40 32 79 34 74 38 76 98 61z
m1901 -36 c4 -16 18 -81 33 -144 32 -139 32 -141 2 -141 -23 0 -26 7 -46 98
-40 181 -37 172 -70 165 -27 -5 -30 -3 -30 20 0 21 5 26 33 30 60 8 71 4 78
-28z m1444 -5 c-3 -5 -16 -10 -28 -10 -18 0 -19 2 -7 10 20 13 43 13 35 0z
m-2991 -31 c37 -29 37 -99 1 -127 -24 -19 -24 -20 -5 -37 28 -26 27 -86 -3
-120 -16 -20 -35 -28 -68 -32 -74 -8 -129 30 -129 90 0 20 4 23 24 20 15 -3
27 -14 30 -29 12 -46 99 -45 110 2 9 32 -17 74 -44 74 -15 0 -20 7 -20 25 0
21 5 25 29 25 36 0 55 22 47 54 -9 36 -86 45 -86 10 0 -9 -11 -14 -31 -14 -27
0 -30 3 -24 23 11 38 43 57 95 57 33 0 55 -6 74 -21z m1250 -31 c4 -29 11 -82
16 -118 5 -36 12 -86 15 -112 l6 -48 -30 0 c-29 0 -31 2 -31 38 -1 27 -25 224
-29 239 -1 1 -17 -1 -36 -4 -34 -5 -35 -5 -27 18 6 17 20 26 43 30 67 12 67
13 73 -43z m-2105 -12 c14 -16 9 -46 -7 -46 -5 0 -21 9 -36 21 -21 17 -24 24
-16 40 12 21 34 15 59 -15z m1481 -43 c0 -43 -3 -122 -7 -175 l-6 -98 -40 0
-39 0 3 175 4 175 43 0 42 0 0 -77z m-460 48 c0 -5 -7 -14 -15 -21 -13 -10
-15 -9 -15 9 0 12 6 21 15 21 8 0 15 -4 15 -9z m-1379 -58 c12 -15 12 -16 -4
-10 -10 4 -23 7 -28 7 -6 0 -7 5 -4 10 9 15 21 12 36 -7z m2280 -26 c35 -31
57 -81 41 -91 -4 -2 -45 13 -90 35 -74 37 -80 42 -70 59 25 39 73 38 119 -3z
m366 -62 c11 -44 18 -83 17 -86 -2 -4 -15 -4 -30 -1 -30 6 -39 26 -47 109 -5
61 -4 63 18 61 20 -2 25 -12 42 -83z m-677 55 c0 -5 -7 -10 -15 -10 -8 0 -15
5 -15 10 0 6 7 10 15 10 8 0 15 -4 15 -10z m-1783 -42 c36 -13 41 -23 19 -31
-16 -6 -96 23 -96 36 0 11 39 9 77 -5z m3701 0 c29 -29 3 -72 -36 -61 -16 4
-22 13 -22 32 0 15 3 31 7 34 10 11 38 8 51 -5z m-531 -27 c6 -9 10 -17 9 -19
-9 -8 -96 24 -96 36 0 18 71 4 87 -17z m-3017 -36 c0 -18 -5 -25 -19 -25 -11
0 -23 5 -26 10 -11 18 3 40 25 40 15 0 20 -7 20 -25z m1070 -5 c0 -5 -4 -10
-10 -10 -5 0 -10 5 -10 10 0 6 5 10 10 10 6 0 10 -4 10 -10z m-823 -35 c3 -9
3 -18 1 -21 -9 -9 -38 8 -38 22 0 19 29 18 37 -1z m2367 -1 c7 -18 0 -34 -15
-34 -5 0 -9 11 -9 25 0 28 15 34 24 9z m316 -24 c0 -15 -7 -20 -25 -20 -18 0
-25 5 -25 20 0 15 7 20 25 20 18 0 25 -5 25 -20z m-1152 -77 c2 -8 -5 -13 -17
-13 -12 0 -21 6 -21 16 0 18 31 15 38 -3z m-1378 -33 c0 -5 -4 -10 -10 -10 -5
0 -10 5 -10 10 0 6 5 10 10 10 6 0 10 -4 10 -10z m-70 -72 c0 -13 -32 -6 -37
9 -3 7 3 9 16 6 12 -3 21 -10 21 -15z m880 -32 c0 -3 -4 -8 -10 -11 -5 -3 -10
-1 -10 4 0 6 5 11 10 11 6 0 10 -2 10 -4z m718 -17 c4 -19 -27 -34 -41 -20
-14 14 0 43 20 39 10 -2 19 -10 21 -19z"/>
<path d="M4569 9261 c-20 -16 -24 -28 -23 -70 1 -62 23 -91 70 -91 47 0 74 32
74 87 0 77 -67 118 -121 74z"/>
<path d="M5198 9288 l-23 -23 37 -3 c21 -2 57 -2 80 0 l43 3 -22 23 c-15 14
-35 22 -58 22 -23 0 -43 -8 -57 -22z"/>
<path d="M5600 9248 c-27 -45 -26 -101 2 -128 50 -46 116 -8 125 73 4 37 2 48
-18 66 -14 13 -36 21 -56 21 -27 0 -37 -6 -53 -32z"/>
<path d="M6663 9010 c-49 -20 -69 -114 -33 -150 40 -40 99 -22 124 39 29 73
-25 137 -91 111z"/>
<path d="M3265 8878 c-54 -29 -62 -93 -16 -139 47 -46 109 -36 129 20 15 43
-1 93 -37 114 -34 20 -48 21 -76 5z"/>
<path d="M6165 8660 c-4 -6 7 -10 27 -9 27 0 30 2 13 9 -27 12 -33 12 -40 0z"/>
<path d="M2876 8649 c-14 -17 -26 -38 -26 -47 0 -30 37 -78 69 -91 26 -12 35
-11 63 6 28 16 33 25 36 62 3 36 -1 48 -24 72 -39 40 -83 40 -118 -2z"/>
<path d="M4130 8530 c-11 -7 -7 -10 18 -10 20 0 31 4 27 10 -8 13 -26 13 -45
0z"/>
<path d="M7548 8533 c-28 -7 -22 -19 31 -57 57 -42 71 -45 71 -13 0 27 -8 38
-40 60 -25 17 -31 18 -62 10z"/>
<path d="M7058 8423 c6 -2 18 -2 25 0 6 3 1 5 -13 5 -14 0 -19 -2 -12 -5z"/>
<path d="M7070 8391 c0 -5 10 -11 23 -15 38 -10 43 -7 13 9 -33 17 -36 18 -36
6z"/>
<path d="M6940 8371 c0 -5 14 -14 32 -20 31 -11 31 -11 13 9 -19 21 -45 27
-45 11z"/>
<path d="M7145 8350 c3 -5 8 -10 11 -10 2 0 4 5 4 10 0 6 -5 10 -11 10 -5 0
-7 -4 -4 -10z"/>
<path d="M6381 8124 c-7 -25 -10 -48 -8 -51 3 -2 10 17 16 43 7 25 10 48 8 51
-3 2 -10 -17 -16 -43z"/>
<path d="M6351 8053 c0 -6 -4 -20 -7 -30 -5 -14 -4 -15 5 -7 7 7 11 20 8 30
-3 11 -5 14 -6 7z"/>
<path d="M3365 8280 c-3 -5 1 -10 10 -10 9 0 13 5 10 10 -3 6 -8 10 -10 10 -2
0 -7 -4 -10 -10z"/>
<path d="M3381 8150 c-26 -22 -24 -24 13 -10 14 5 26 14 26 20 0 15 -12 12
-39 -10z"/>
<path d="M6730 8193 c0 -16 53 -102 63 -103 12 0 -22 73 -43 95 -11 11 -20 14
-20 8z"/>
<path d="M6705 8125 c7 -33 12 -41 20 -33 3 3 -2 18 -11 34 l-16 29 7 -30z"/>
<path d="M6500 8070 c-6 -11 -8 -20 -6 -20 3 0 10 9 16 20 6 11 8 20 6 20 -3
0 -10 -9 -16 -20z"/>
<path d="M6665 8019 c-4 -12 -2 -26 4 -32 8 -8 11 -2 11 21 0 37 -6 41 -15 11z"/>
<path d="M3912 8100 c0 -14 2 -19 5 -12 2 6 2 18 0 25 -3 6 -5 1 -5 -13z"/>
<path d="M3791 7994 c0 -11 3 -14 6 -6 3 7 2 16 -1 19 -3 4 -6 -2 -5 -13z"/>
<path d="M3811 7964 c0 -11 3 -14 6 -6 3 7 2 16 -1 19 -3 4 -6 -2 -5 -13z"/>
<path d="M2565 7020 c-3 -5 -2 -10 4 -10 5 0 13 5 16 10 3 6 2 10 -4 10 -5 0
-13 -4 -16 -10z"/>
<path d="M2090 7006 c0 -15 18 -31 26 -23 7 7 -7 37 -17 37 -5 0 -9 -6 -9 -14z"/>
<path d="M5210 7425 c0 -8 -9 -19 -21 -25 -11 -7 -18 -14 -15 -17 9 -9 56 26
56 42 0 8 -4 15 -10 15 -5 0 -10 -7 -10 -15z"/>
<path d="M5120 7380 c0 -5 7 -10 16 -10 8 0 12 5 9 10 -3 6 -10 10 -16 10 -5
0 -9 -4 -9 -10z"/>
<path d="M5005 7330 c-10 -11 -14 -20 -9 -20 5 0 15 9 22 20 7 11 11 20 9 20
-2 0 -12 -9 -22 -20z"/>
<path d="M5405 7451 c-4 -7 -5 -13 -3 -14 2 -1 18 -15 37 -32 23 -21 30 -24
23 -10 -24 44 -49 68 -57 56z"/>
<path d="M5360 7442 c0 -12 19 -26 26 -19 2 2 -2 10 -11 17 -9 8 -15 8 -15 2z"/>
<path d="M7551 6955 c0 -5 6 -19 14 -29 8 -11 15 -15 15 -10 0 6 -7 19 -15 30
-8 10 -14 15 -14 9z"/>
<path d="M8060 6900 c0 -5 5 -10 10 -10 6 0 10 5 10 10 0 6 -4 10 -10 10 -5 0
-10 -4 -10 -10z"/>
<path d="M8036 6865 c-3 -9 0 -15 9 -15 8 0 15 7 15 15 0 8 -4 15 -9 15 -5 0
-11 -7 -15 -15z"/>
<path d="M8816 6979 c-39 -30 -47 -52 -35 -87 12 -34 56 -58 88 -47 68 21 99
85 65 133 -20 29 -81 30 -118 1z"/>
<path d="M1159 6856 c-26 -25 -110 -244 -109 -283 0 -43 41 -71 169 -118 182
-67 191 -62 261 134 61 172 56 182 -115 246 -139 52 -172 55 -206 21z m76 -36
c0 -20 -6 -26 -26 -28 -17 -2 -29 3 -32 12 -11 28 4 47 32 44 20 -2 26 -8 26
-28z m103 -54 c89 -46 101 -170 22 -226 -53 -38 -148 -20 -184 34 -21 33 -21
114 0 145 38 54 109 75 162 47z"/>
<path d="M1229 6701 c-34 -35 -37 -68 -8 -105 29 -37 90 -37 124 0 32 34 32
65 -1 103 -34 41 -75 42 -115 2z"/>
<path d="M8989 6597 c-67 -45 -43 -132 36 -130 51 1 95 37 95 76 0 74 -63 100
-131 54z"/>
<path d="M2236 6506 c3 -8 1 -17 -5 -21 -6 -3 -11 -12 -11 -18 1 -16 30 23 30
40 0 7 -4 13 -10 13 -5 0 -7 -6 -4 -14z"/>
<path d="M1625 6300 c-3 -5 -1 -10 4 -10 6 0 11 5 11 10 0 6 -2 10 -4 10 -3 0
-8 -4 -11 -10z"/>
<path d="M7857 6393 c-4 -3 -7 -11 -7 -17 0 -6 5 -5 12 2 6 6 9 14 7 17 -3 3
-9 2 -12 -2z"/>
<path d="M8485 6140 c3 -5 8 -10 11 -10 2 0 4 5 4 10 0 6 -5 10 -11 10 -5 0
-7 -4 -4 -10z"/>
<path d="M4400 5110 c-12 -8 -11 -10 7 -10 29 0 53 -25 54 -58 2 -26 2 -26 6
-3 3 14 11 35 19 47 14 20 13 22 -8 21 -13 -1 -32 2 -43 6 -11 4 -27 2 -35 -3z"/>
<path d="M5487 4574 c-7 -12 -10 -254 -3 -254 14 0 125 62 151 85 42 37 42 93
-2 137 -26 25 -42 32 -86 36 -30 2 -57 0 -60 -4z"/>
<path d="M6438 4580 c-49 -29 -78 -145 -78 -318 0 -113 17 -247 36 -283 22
-43 63 -61 108 -47 20 6 36 15 36 19 0 4 7 15 16 23 22 22 34 118 34 271 0
149 -11 238 -35 288 -23 49 -76 70 -117 47z"/>
<path d="M7340 4562 c-37 -36 -49 -85 -56 -242 -7 -142 7 -294 31 -340 14 -28
65 -60 94 -60 6 0 26 14 45 30 48 43 60 120 53 344 -6 193 -15 234 -58 270
-40 34 -72 33 -109 -2z"/>
<path d="M5345 3690 c-3 -5 1 -10 10 -10 9 0 13 5 10 10 -3 6 -8 10 -10 10 -2
0 -7 -4 -10 -10z"/>
<path d="M5400 3670 c0 -5 5 -10 10 -10 6 0 10 5 10 10 0 6 -4 10 -10 10 -5 0
-10 -4 -10 -10z"/>
<path d="M2294 3447 c-2 -7 -3 -62 -2 -123 l3 -109 34 -3 c69 -7 129 40 138
106 7 53 -19 106 -62 126 -40 19 -104 21 -111 3z"/>
<path d="M4117 3440 c-28 -23 -57 -73 -57 -101 0 -60 65 -129 122 -129 47 0
52 10 22 39 -14 13 -23 28 -21 34 6 18 69 14 81 -5 16 -26 23 -22 36 17 16 47
5 88 -35 130 -28 30 -39 35 -77 35 -30 0 -54 -7 -71 -20z"/>
<path d="M5670 3415 c0 -44 0 -45 33 -45 26 0 36 6 45 25 10 21 9 28 -8 45
-11 11 -31 20 -45 20 -23 0 -25 -4 -25 -45z"/>
<path d="M5455 2140 c-13 -5 -14 -9 -5 -9 8 0 24 4 35 9 13 5 14 9 5 9 -8 0
-24 -4 -35 -9z"/>
<path d="M5417 2123 c-4 -3 -7 -11 -7 -17 0 -6 5 -5 12 2 6 6 9 14 7 17 -3 3
-9 2 -12 -2z"/>
<path d="M5400 2014 c0 -6 7 -19 15 -30 8 -10 14 -14 14 -9 0 6 -6 19 -14 29
-8 11 -15 15 -15 10z"/>
<path d="M4100 2682 c6 -13 14 -21 18 -18 3 4 -2 14 -12 24 -18 16 -18 16 -6
-6z"/>
<path d="M7746 1697 c-12 -9 -17 -23 -14 -42 4 -38 45 -46 73 -15 15 17 16 24
7 45 -13 27 -38 32 -66 12z"/>
<path d="M7827 1582 c-21 -23 -22 -65 -3 -81 23 -19 67 -9 89 21 19 25 19 28
3 52 -20 31 -65 35 -89 8z"/>
<path d="M5045 1511 c-3 -5 -1 -12 5 -16 5 -3 10 1 10 9 0 18 -6 21 -15 7z"/>
<path d="M7280 1258 c0 -18 -3 -43 -6 -55 -8 -27 7 -30 41 -7 l24 16 -22 39
c-27 47 -37 49 -37 7z"/>
<path d="M2986 1349 c-45 -36 -25 -109 30 -109 28 0 64 36 64 63 0 30 -11 44
-42 56 -22 8 -31 6 -52 -10z"/>
<path d="M4820 1286 c0 -9 5 -16 10 -16 6 0 10 4 10 9 0 6 -4 13 -10 16 -5 3
-10 -1 -10 -9z"/>
<path d="M4836 1235 c8 -37 14 -45 14 -19 0 10 -5 26 -10 34 -8 11 -9 7 -4
-15z"/>
<path d="M4780 1221 c0 -5 5 -13 10 -16 6 -3 10 -2 10 4 0 5 -4 13 -10 16 -5
3 -10 2 -10 -4z"/>
<path d="M4915 1220 c-3 -5 -1 -10 4 -10 6 0 11 5 11 10 0 6 -2 10 -4 10 -3 0
-8 -4 -11 -10z"/>
<path d="M5110 1139 c0 -5 5 -7 10 -4 6 3 10 8 10 11 0 2 -4 4 -10 4 -5 0 -10
-5 -10 -11z"/>
<path d="M5235 1130 c-3 -5 1 -10 10 -10 9 0 13 5 10 10 -3 6 -8 10 -10 10 -2
0 -7 -4 -10 -10z"/>
<path d="M4815 1120 c-7 -12 2 -30 16 -30 12 0 12 27 0 35 -5 3 -12 1 -16 -5z"/>
<path d="M4710 1070 c0 -5 5 -10 10 -10 6 0 10 5 10 10 0 6 -4 10 -10 10 -5 0
-10 -4 -10 -10z"/>
<path d="M4608 1063 c-21 -5 -24 -23 -4 -23 8 0 16 7 20 15 3 8 4 14 3 14 -1
-1 -10 -3 -19 -6z"/>
<path d="M4645 1060 c3 -5 8 -10 11 -10 2 0 4 5 4 10 0 6 -5 10 -11 10 -5 0
-7 -4 -4 -10z"/>
<path d="M5402 1000 c0 -14 2 -19 5 -12 2 6 2 18 0 25 -3 6 -5 1 -5 -13z"/>
<path d="M5460 995 l-25 -14 33 -1 c22 0 32 5 32 15 0 18 -8 18 -40 0z"/>
<path d="M5260 990 c0 -5 5 -10 10 -10 6 0 10 5 10 10 0 6 -4 10 -10 10 -5 0
-10 -4 -10 -10z"/>
<path d="M3251 1104 l-53 -33 33 -14 34 -14 23 44 c13 25 22 46 20 47 -2 1
-27 -12 -57 -30z"/>
<path d="M5198 340 c-10 -9 -18 -22 -18 -28 0 -5 -6 -13 -12 -15 -9 -4 -10 -6
-1 -6 11 -1 59 57 52 63 -2 2 -12 -4 -21 -14z"/>
<path d="M5146 264 c-4 -9 -4 -19 -1 -22 2 -3 7 3 11 12 4 9 4 19 1 22 -2 3
-7 -3 -11 -12z"/>
</g>
</svg>
